<svg width="210" height="84" viewBox="0 0 210 84" fill="none" xmlns="http://www.w3.org/2000/svg">
<path d="M3.25881 1.18429C2.80831 0.489064 1.87951 0.29068 1.18429 0.741185C0.489064 1.19169 0.29068 2.12049 0.741185 2.81571L3.25881 1.18429ZM209.423 64.9743C209.685 64.1884 209.26 63.3389 208.474 63.077L195.667 58.8079C194.881 58.5459 194.032 58.9707 193.77 59.7566C193.508 60.5425 193.933 61.392 194.718 61.6539L206.103 65.4487L202.308 76.8329C202.046 77.6188 202.471 78.4683 203.257 78.7302C204.042 78.9922 204.892 78.5675 205.154 77.7816L209.423 64.9743ZM0.741185 2.81571C14.3633 23.8374 41.0632 52.1761 76.9894 68.9837C112.978 85.8205 158.213 91.0708 208.671 65.8416L207.329 63.1584C157.787 87.9292 113.522 82.7628 78.2606 66.2663C42.9368 49.7406 16.6367 21.8292 3.25881 1.18429L0.741185 2.81571Z" fill="#124635"/>
</svg>
