<svg width="186" height="75" viewBox="0 0 186 75" fill="none" xmlns="http://www.w3.org/2000/svg">
<path d="M1.80458 69.0312C0.993411 68.863 0.199463 69.3843 0.0312485 70.1954C-0.136966 71.0066 0.384251 71.8005 1.19542 71.9688L1.80458 69.0312ZM183.49 1.82633C183.394 1.00347 182.649 0.414172 181.826 0.510088L168.417 2.07312C167.594 2.16904 167.005 2.91385 167.101 3.73671C167.197 4.55956 167.942 5.14887 168.764 5.05295L180.684 3.66358L182.073 15.5829C182.169 16.4057 182.914 16.995 183.737 16.8991C184.56 16.8032 185.149 16.0584 185.053 15.2355L183.49 1.82633ZM1.19542 71.9688C37.7054 79.5399 125.107 76.3236 183.176 2.93072L180.824 1.06928C123.693 73.2764 37.6279 76.4601 1.80458 69.0312L1.19542 71.9688Z" fill="#124635"/>
</svg>
