<svg width="613" height="849" viewBox="0 0 613 849" fill="none" xmlns="http://www.w3.org/2000/svg">
<g opacity="0.08">
<path d="M525.729 179.576C461.137 90.3868 365.378 28.7595 257.466 6.93137C202.312 -3.95703 145.394 -1.99558 91.1194 12.6637C36.8453 27.323 -13.3272 54.2865 -55.5078 91.4647C-118.874 136.076 -165.22 200.89 -186.957 275.291C-196.659 347.943 -188.84 421.862 -164.154 490.873C-145.457 575.726 -107.52 655.146 -53.2714 723.005C0.787567 785.56 74.6335 827.705 155.973 842.425C309.33 869.261 489.514 809.774 565.522 666.649C602.552 589.198 618.379 503.305 611.388 417.736C604.397 332.167 574.838 249.985 525.729 179.576ZM522.152 602.69C473.418 729.714 337.051 786.964 209.179 781.596C59.8459 774.44 -42.5406 658.598 -82.333 522.182C-109.059 453.823 -122.123 380.883 -120.785 307.494C-112.29 235.932 -57.2955 183.602 -4.53716 140.217C27.87 112.224 65.9469 91.5748 107.081 79.6857C148.215 67.7966 191.432 64.9488 233.769 71.3377C317.326 86.1696 393.597 128.33 450.615 191.205C497.104 247.92 528.125 315.708 540.661 387.972C553.197 460.236 546.821 534.516 522.152 603.584V602.69Z" fill="#D9E0C0"/>
<path d="M78.6204 174.206L75.4917 176.89L71.9141 179.126C42.3321 200.503 18.4311 228.799 2.29824 261.544C-13.8346 294.289 -21.709 330.487 -20.6369 366.978C-11.2277 432.195 14.9651 493.846 55.3715 545.884C120.202 640.705 212.306 739.998 337.942 729.711C431.387 722.107 479.227 642.941 489.064 556.619C498.501 465.599 479.107 373.914 433.622 294.521C369.239 184.046 196.656 95.4871 78.6204 174.206ZM408.138 607.607C403.096 620.089 395.478 631.368 385.783 640.705C377.633 648.541 367.865 654.495 357.167 658.148C322.93 666.299 286.965 663 254.78 648.755C209.198 626.505 170.208 592.743 141.662 550.804C103.169 506.589 72.8853 455.846 52.2414 400.97C43.1978 369.732 44.2511 336.435 55.2514 305.832C66.2517 275.229 86.6362 248.885 113.495 230.562C193.973 179.573 317.822 243.085 363.874 311.964C403.485 372.753 424.465 443.801 424.233 516.365C425.139 547.558 419.662 578.608 408.138 607.607Z" fill="#D9E0C0"/>
<path d="M284.744 290.494C257.866 270.445 225.671 258.776 192.193 256.949C178.847 257.051 165.784 260.816 154.431 267.836C143.077 274.856 133.869 284.859 127.81 296.756C119.193 323.799 117.131 352.505 121.796 380.503C126.46 408.501 137.718 434.986 154.637 457.772C172.551 486.35 195.591 511.37 222.596 531.571C248.162 552.602 279.171 565.941 312.017 570.036C325.199 571.481 338.523 569.186 350.462 563.411C362.401 557.637 372.475 548.618 379.53 537.385C390.529 515.571 394.437 490.863 390.708 466.717C386.115 431.631 374.333 397.871 356.1 367.549C337.867 337.227 313.575 310.995 284.744 290.494ZM189.511 324.039C189.511 324.039 191.299 322.25 190.852 323.145L189.511 324.039ZM323.195 492.659C323.441 493.688 323.441 494.76 323.195 495.789V500.709V503.393H316.936H309.335L301.735 500.709H299.052C292.713 497.874 286.587 494.586 280.721 490.869L261.942 477.899L253.894 470.742C248.976 466.27 244.505 461.797 240.034 456.877C237.815 454.455 235.725 451.916 233.774 449.274L231.539 446.59C223.903 436.623 217.17 425.996 211.418 414.834C200.688 405.442 200.688 403.205 200.688 396.944C200.688 390.682 200.688 396.944 200.688 396.944V394.707V392.024C199.453 389.419 198.407 386.728 197.558 383.973C197.558 378.606 194.428 373.238 193.087 367.871C192.871 365.341 192.871 362.798 193.087 360.268V358.479C192.865 354.456 192.865 350.425 193.087 346.402V336.563C193.294 333.286 193.294 329.999 193.087 326.723H206.501L215.89 329.406H220.361C223.044 329.406 227.068 332.09 230.197 333.879C238.937 338.364 247.443 343.29 255.683 348.639H257.918L264.624 354.453C269.416 358.432 273.901 362.768 278.038 367.424L284.297 374.58C284.297 374.58 291.898 385.315 284.297 374.58C287.874 380.395 291.898 385.315 295.474 390.682C301.894 401.076 307.717 411.827 312.912 422.885L315.595 430.936C317.83 436.75 319.619 442.565 321.407 448.379L324.09 462.692C324.09 465.375 324.09 467.612 324.09 470.295C324.537 474.458 324.537 478.656 324.09 482.819C322.748 492.659 322.301 492.659 322.301 495.342L323.195 492.659Z" fill="#D9E0C0"/>
</g>
</svg>
