<svg width="31" height="31" viewBox="0 0 31 31" fill="none" xmlns="http://www.w3.org/2000/svg">
<path fill-rule="evenodd" clip-rule="evenodd" d="M12.3757 7.75C12.3757 6.02411 13.7748 4.625 15.5007 4.625C17.2265 4.625 18.6257 6.02411 18.6257 7.75V8.29167H12.3757V7.75ZM10.8757 9.79167V11.625C10.8757 12.0392 11.2114 12.375 11.6257 12.375C12.0399 12.375 12.3757 12.0392 12.3757 11.625V9.79167H18.6257V11.625C18.6257 12.0392 18.9614 12.375 19.3757 12.375C19.7899 12.375 20.1257 12.0392 20.1257 11.625V9.79167H22.5561L23.7324 25.0833H7.26889L8.44518 9.79167H10.8757ZM10.8757 8.29167V7.75C10.8757 5.19568 12.9463 3.125 15.5007 3.125C18.055 3.125 20.1257 5.19568 20.1257 7.75V8.29167H23.2507C23.6426 8.29167 23.9684 8.5934 23.9984 8.98414L25.2901 25.7758C25.3061 25.9841 25.2346 26.1896 25.0926 26.3429C24.9507 26.4962 24.7512 26.5833 24.5423 26.5833H6.45899C6.25008 26.5833 6.05064 26.4962 5.90869 26.3429C5.76675 26.1896 5.69517 25.9841 5.7112 25.7758L7.00286 8.98414C7.03292 8.5934 7.35875 8.29167 7.75065 8.29167H10.8757Z" fill="black"/>
</svg>
