<svg width="77" height="74" viewBox="0 0 77 74" fill="none" xmlns="http://www.w3.org/2000/svg">
<path d="M14.3116 33.5273C13.5625 39.6436 14.7055 45.8409 17.5869 51.2851C19.336 54.498 21.7409 57.3074 24.646 59.5316C25.3833 60.0962 26.1577 60.6108 26.9639 61.0717C27.6702 61.5448 28.4496 61.8985 29.2709 62.1185C29.4232 62.1701 29.5854 62.1853 29.7447 62.163C29.904 62.1407 30.0558 62.0815 30.1882 61.99C30.3205 61.8986 30.4296 61.7775 30.5068 61.6365C30.584 61.4954 30.6272 61.3383 30.6328 61.1777C30.6462 60.706 30.3571 60.3496 30.2888 59.9014C29.9465 58.1356 29.8421 56.3319 29.9784 54.538C30.0638 52.8711 30.153 51.1902 30.3651 49.5572C31.0545 43.0664 34.138 37.0628 39.0143 32.7173C41.4413 30.8627 44.1998 29.4881 47.1417 28.6671C50.8629 27.4821 54.6578 27.4558 58.5242 27.3883C58.6419 27.3866 58.7577 27.3584 58.863 27.3057C58.9684 27.2531 59.0605 27.1775 59.1326 27.0845C59.2047 26.9914 59.255 26.8833 59.2795 26.7682C59.3041 26.6532 59.3025 26.534 59.2747 26.4197C58.7005 25.0563 57.693 23.9201 56.4078 23.1865C55.173 22.3057 53.8835 21.5158 52.6511 20.5979C51.2538 19.5327 49.7934 18.5527 48.2779 17.6634C46.8215 16.8698 45.2709 16.2626 43.6625 15.8561C37.2921 14.2055 30.8539 15.7579 25.0465 18.6707C22.0685 20.1021 19.491 22.2482 17.5441 24.9172C15.7748 27.4785 14.6646 30.4359 14.3116 33.5273ZM41.51 17.0155C43.0949 17.2808 44.6427 17.7327 46.1211 18.3616C47.7798 19.1346 49.3483 20.0878 50.7982 21.2038C52.0818 22.1279 53.3654 23.0519 54.7318 23.8925C55.6687 24.4189 56.5234 25.0795 57.2688 25.8532C54.1465 25.7922 51.028 26.1109 47.982 26.8023C44.7453 27.5887 41.6781 28.9565 38.93 30.8391C36.2893 32.9115 34.085 35.4858 32.4444 38.4134C30.696 41.4183 29.5314 44.7258 29.0118 48.1619C28.7387 50.0505 28.5607 51.9516 28.4784 53.8579C28.2705 56.0089 28.3609 58.1781 28.7471 60.3038L27.8604 59.8405C26.585 59.1272 25.3914 58.2769 24.3008 57.3046C22.0935 55.354 20.2477 53.0296 18.8481 50.438C16.2732 45.4696 15.2051 39.8571 15.7749 34.2882C16.0158 31.5657 16.8798 28.9344 18.3001 26.5978C19.9061 24.082 22.1279 22.0173 24.755 20.5993C29.788 17.7887 35.7241 16.0266 41.51 17.0155Z" fill="#114635"/>
<path d="M18.4274 35.7886C17.68 39.5193 18.0715 43.3875 19.551 46.8911C20.2554 48.6055 21.0737 50.2708 22.0003 51.8759C22.6544 53.0088 23.5769 54.7717 24.9516 55.1317C25.0624 55.1641 25.1795 55.1686 25.2925 55.1449C25.4055 55.1211 25.5109 55.0699 25.5994 54.9956C25.7381 54.9207 25.8448 54.798 25.8998 54.6503C25.9547 54.5026 25.954 54.34 25.8979 54.1929C24.3909 49.5204 25.961 44.7127 28.255 40.5813C30.8489 35.7787 34.4036 31.5603 38.698 28.1888C41.4651 26.1305 44.4618 24.4004 47.6278 23.0331C47.8055 22.9305 47.9351 22.7617 47.9883 22.5637C48.0414 22.3657 48.0137 22.1548 47.9113 21.9774C47.3584 21.3258 46.6774 20.7947 45.9104 20.4171C45.1435 20.0394 44.3071 19.8233 43.4529 19.782C41.5501 19.5388 39.6256 19.5127 37.7166 19.7041C32.9539 19.9343 28.3872 21.6752 24.679 24.6741C21.4284 27.5913 19.231 31.4981 18.4274 35.7886ZM36.4398 21.4522C38.2422 21.1949 40.0646 21.1064 41.8832 21.1878C43.2907 21.1612 44.6817 21.4916 45.9263 22.1482C40.3836 24.6212 35.477 28.3245 31.5797 32.9764C28.4434 36.8449 25.4989 41.3756 24.2897 46.2723C23.8243 48.1165 23.6865 50.0278 23.8826 51.9191L23.5376 51.3214C22.7473 49.97 22.0336 48.5754 21.3996 47.144C20.0066 44.2093 19.4342 40.9519 19.7432 37.717C20.1544 33.7628 21.8196 30.0425 24.4956 27.0993C27.6944 23.8785 31.9211 21.8801 36.4398 21.4522Z" fill="#114635"/>
<path d="M21.1654 36.8608C20.7509 38.7415 20.7791 40.9969 22.6198 42.1227C22.7291 42.1845 22.8514 42.2198 22.9769 42.2258C23.1218 42.2527 23.2716 42.2269 23.3994 42.1532C23.5271 42.0795 23.6243 41.9626 23.6734 41.8236C25.2812 37.9894 27.6118 34.4996 30.5383 31.5445C33.0425 29.1591 36.35 27.4636 38.2509 24.4869C38.3442 24.3121 38.3678 24.1085 38.317 23.9172C38.2662 23.7259 38.1447 23.5609 37.977 23.4556C33.9334 21.7106 29.4996 25.0435 26.6419 27.6211C23.9217 30.0755 22.0117 33.298 21.1654 36.8608ZM36.3102 24.5488C35.3725 25.6045 34.3292 26.5615 33.1966 27.405C31.7754 28.4524 30.4147 29.5796 29.121 30.7809C26.4787 33.5258 24.3207 36.6982 22.7385 40.163C22.3841 39.2471 22.3468 38.2386 22.6324 37.2984C23.0529 35.5829 23.7305 33.9406 24.6422 32.4271C26.3736 29.6385 28.8037 27.3498 31.6916 25.7881C33.0518 24.89 34.6638 24.4512 36.291 24.5361L36.3102 24.5488Z" fill="#114635"/>
<path d="M14.2978 23.9958C11.1616 28.8751 10.1153 35.1883 10.3288 40.9406C10.5289 47.0937 12.9857 52.9565 17.2316 57.4129C21.4665 61.902 27.0046 64.8538 32.7148 67.0519C33.8704 67.6343 35.1588 67.9034 36.4515 67.8323C36.532 67.8257 36.6104 67.8032 36.6821 67.766C36.7538 67.7288 36.8174 67.6777 36.8692 67.6157C36.9209 67.5537 36.9598 67.4821 36.9836 67.4049C37.0074 67.3278 37.0156 67.2467 37.0076 67.1663L37.0303 67.0819C36.9384 66.1655 36.6227 65.2858 36.111 64.5203C35.6071 63.6683 35.1754 62.7757 34.8204 61.8518C33.9241 58.9795 34.4431 55.754 35.0428 52.8743C35.6737 49.7378 36.7564 46.7088 38.2571 43.8822C39.7629 41.1673 41.7426 38.7433 44.1026 36.725C46.4452 34.5263 49.2539 32.8844 52.3191 31.9218C55.3556 31.2075 58.4744 30.9072 61.5908 31.029C62.4129 31.0301 63.2454 31.049 64.0624 31.0411C64.6687 31.0783 65.2773 31.0462 65.8764 30.9453C67.0465 30.6623 66.9577 29.5598 66.6038 28.658C65.4516 25.7551 63.0651 23.6837 60.8818 21.6139C59.7844 20.5586 58.757 19.439 57.5908 18.4709C56.4599 17.5226 55.2536 16.6677 53.9838 15.9148C51.4344 14.4994 48.7607 13.3199 45.9961 12.3911C43.49 11.3314 40.8233 10.6999 38.1071 10.523C35.0685 10.5688 32.0711 11.2386 29.3013 12.4909C23.4308 14.9644 17.8255 18.5574 14.2978 23.9958ZM65.2996 29.637L65.3821 29.7797C65.1506 29.7706 65.2066 29.7026 65.2996 29.637ZM27.1999 15.2028C29.8844 13.7664 32.7812 12.7685 35.7805 12.2469C38.3932 11.9625 41.0356 12.2994 43.4921 13.2302C48.803 15.0048 54.0743 17.1233 58.0874 21.1458C60.1364 23.2099 62.5453 25.1137 64.1635 27.5454C64.5414 28.093 64.854 28.6829 65.095 29.3031L65.1702 29.5571C63.7267 29.5936 62.2881 29.5559 60.8433 29.5694C57.8209 29.4796 54.7998 29.7958 51.8608 30.5093C48.9852 31.3831 46.3205 32.8406 44.0335 34.7905C41.6981 36.6362 39.659 38.8283 37.9872 41.2905C36.3373 43.831 35.0765 46.6035 34.2468 49.5159C33.3371 52.3312 32.8275 55.2598 32.7332 58.216C32.6807 59.635 32.8635 61.0526 33.2742 62.4115C33.6355 63.3292 34.059 64.2212 34.5418 65.0813C34.7375 65.4203 35.0207 65.9109 35.2003 66.3663C34.8645 66.2856 34.5333 66.187 34.2082 66.0708C33.5334 65.83 32.861 65.5522 32.1989 65.2922C30.8132 64.7482 29.4657 64.1465 28.137 63.4744C25.5044 62.185 23.0294 60.5969 20.7608 58.7412C16.1945 55.0854 13.1106 49.8977 12.0806 44.1397C11.6936 41.2712 11.7052 38.3627 12.1151 35.4967C12.4126 32.6608 13.1495 29.888 14.2994 27.2776C15.5917 24.5506 17.4267 22.1151 19.6922 20.1201C21.9736 18.1432 24.5109 16.4822 27.2356 15.1822L27.1999 15.2028Z" fill="#114635"/>
</svg>
