<svg width="19" height="19" viewBox="0 0 19 19" fill="none" xmlns="http://www.w3.org/2000/svg">
<path fill-rule="evenodd" clip-rule="evenodd" d="M0.849609 9.39502C0.849609 5.79988 0.849609 4.00231 1.7063 2.70757C2.08886 2.12941 2.584 1.63427 3.16216 1.25171C4.4569 0.39502 6.25447 0.39502 9.84961 0.39502C13.4447 0.39502 15.2423 0.39502 16.5371 1.25171C17.1152 1.63427 17.6104 2.12941 17.9929 2.70757C18.8496 4.00231 18.8496 5.79988 18.8496 9.39502C18.8496 12.9902 18.8496 14.7877 17.9929 16.0825C17.6104 16.6606 17.1152 17.1558 16.5371 17.5383C15.2423 18.395 13.4447 18.395 9.84961 18.395C6.25447 18.395 4.4569 18.395 3.16216 17.5383C2.584 17.1558 2.08886 16.6606 1.7063 16.0825C0.849609 14.7877 0.849609 12.9902 0.849609 9.39502ZM14.5092 9.39531C14.5092 11.9686 12.4231 14.0547 9.84981 14.0547C7.27649 14.0547 5.1904 11.9686 5.1904 9.39531C5.1904 6.82199 7.27649 4.7359 9.84981 4.7359C12.4231 4.7359 14.5092 6.82199 14.5092 9.39531ZM9.84981 12.4783C11.5525 12.4783 12.9328 11.098 12.9328 9.39531C12.9328 7.69261 11.5525 6.3123 9.84981 6.3123C8.14712 6.3123 6.76681 7.69261 6.76681 9.39531C6.76681 11.098 8.14712 12.4783 9.84981 12.4783ZM14.6932 5.59663C15.2979 5.59663 15.7881 5.10646 15.7881 4.50181C15.7881 3.89715 15.2979 3.40698 14.6932 3.40698C14.0886 3.40698 13.5984 3.89715 13.5984 4.50181C13.5984 5.10646 14.0886 5.59663 14.6932 5.59663Z" fill="#114635"/>
</svg>
