<svg width="17" height="17" viewBox="0 0 17 17" fill="none" xmlns="http://www.w3.org/2000/svg">
<path d="M12.0478 5.4834H11.158C10.9644 5.4834 10.7804 5.57637 10.6666 5.73574L7.68397 9.8719L6.33308 7.99735C6.21924 7.83987 6.0371 7.74501 5.84167 7.74501H4.95183C4.8285 7.74501 4.75641 7.88541 4.8285 7.98597L7.19257 11.2645C7.24842 11.3425 7.32204 11.406 7.40733 11.4498C7.49263 11.4936 7.58714 11.5165 7.68303 11.5165C7.77892 11.5165 7.87342 11.4936 7.95872 11.4498C8.04401 11.406 8.11763 11.3425 8.17348 11.2645L12.1692 5.72436C12.2432 5.6238 12.1711 5.4834 12.0478 5.4834Z" fill="#124635"/>
<path d="M8.5 0C3.80603 0 0 3.80603 0 8.5C0 13.194 3.80603 17 8.5 17C13.194 17 17 13.194 17 8.5C17 3.80603 13.194 0 8.5 0ZM8.5 15.558C4.6029 15.558 1.44196 12.3971 1.44196 8.5C1.44196 4.6029 4.6029 1.44196 8.5 1.44196C12.3971 1.44196 15.558 4.6029 15.558 8.5C15.558 12.3971 12.3971 15.558 8.5 15.558Z" fill="#124635"/>
</svg>
