<svg width="178" height="31" viewBox="0 0 178 31" fill="none" xmlns="http://www.w3.org/2000/svg">
<g clip-path="url(#clip0_84_2899)">
<path d="M25.4321 8.32588C21.5627 8.32588 19.4895 10.5276 18.5527 13.4592C18.4659 12.6773 18.2656 11.9122 17.958 11.1882C17.6766 10.5444 17.2522 9.97333 16.7173 9.51834C16.1823 9.06335 15.5508 8.73641 14.8707 8.56237C13.8754 8.30533 12.8384 8.25339 11.8224 8.40968C10.8065 8.56598 9.83291 8.92726 8.96069 9.47161C8.04018 10.0465 7.24594 10.8212 6.26841 11.2901C5.82785 11.4535 5.36155 11.5364 4.89172 11.5347C4.39823 11.5667 3.90277 11.5476 3.41321 11.4777C2.59561 11.3786 1.80162 11.1371 1.06714 10.7641C0.699451 10.5699 0.343158 10.3548 0 10.1199L0 30.8083H6.10956V17.6548C6.10956 14.6417 7.03821 10.601 9.80788 10.601C11.5959 10.601 12.5735 11.9425 12.5735 15.3634V26.576C12.5735 29.1815 12.7771 30.8083 18.1454 30.8083H18.6749V17.6548C18.6749 14.6417 19.6117 10.6092 22.3773 10.6092C24.1694 10.6092 25.147 11.9506 25.147 15.3715V26.576C25.147 29.1815 25.3506 30.8083 30.7189 30.8083H31.2484V15.0861C31.1669 11.0536 29.7821 8.32588 25.4321 8.32588Z" fill="#124635"/>
<path d="M121.622 14.9638L119.223 22.9472L113.687 8.73364H112.416C110.058 8.73364 107.863 10.8906 109.447 14.9638C109.936 16.3909 109.651 17.3246 109.203 18.7517L107.904 23.0288L102.336 8.73364H95.6641L104.27 30.8491H106.384L110.25 18.0993C110.323 17.8606 110.377 17.6166 110.413 17.3694L115.622 30.8491H117.711L124.342 8.73364H120.237C120.237 10.279 122.436 12.3584 121.622 14.9638Z" fill="#124635"/>
<path d="M126.582 12.5337V30.8491H127.112C132.484 30.8491 132.688 29.2182 132.688 26.6128V8.73364L128.896 9.61842C128.238 9.77133 127.651 10.1427 127.231 10.6721C126.811 11.2015 126.582 11.8576 126.582 12.5337Z" fill="#124635"/>
<path d="M177.132 26.3314C176.859 26.417 176.615 26.8166 176.354 27.0082C175.25 27.8237 174.167 28.5087 172.774 28.684C171.933 28.7941 171.079 28.7334 170.262 28.5056C169.445 28.2778 168.682 27.8876 168.019 27.3582C167.356 26.8289 166.806 26.1713 166.403 25.4246C165.999 24.678 165.75 23.8576 165.67 23.0125L162.176 27.9542C164.021 29.9521 166.676 30.8491 169.646 30.8491C173.03 30.8491 175.955 28.9409 177.828 26.3314C177.597 26.3008 177.363 26.3008 177.132 26.3314Z" fill="#124635"/>
<path d="M165.941 16.5254C165.941 16.5254 165.941 16.6069 165.941 16.7578C165.941 16.6803 165.941 16.6029 165.962 16.5254H165.941Z" fill="#124635"/>
<path d="M177.869 14.0954C177.638 13.4083 177.293 12.7657 176.846 12.1953C176.175 11.257 175.335 10.4522 174.37 9.82231C172.943 8.92535 171.293 8.44912 169.608 8.44825C164.036 8.44825 159.519 12.073 159.519 19.8648C159.519 19.9749 159.519 20.085 159.519 20.1991C159.526 21.6139 159.737 23.0203 160.147 24.3743C160.253 24.6866 160.38 24.9916 160.526 25.2877C160.615 25.4874 160.864 25.9359 160.864 25.9359C160.343 26.6389 159.667 27.2112 158.888 27.6077C158.471 27.8447 157.982 27.9242 157.511 27.8319C156.933 27.6851 156.998 27.2733 156.958 26.7718C156.933 26.4375 156.958 26.1072 156.958 25.7729V15.1269C156.876 11.0944 155.495 8.3667 151.141 8.3667C147.883 8.3667 145.549 10.1363 142.922 11.7998C142.547 12.0645 142.135 12.2733 141.7 12.4196C141.331 12.5169 140.948 12.5514 140.568 12.5215C139.7 12.4577 138.857 12.2074 138.095 11.7876C137.698 11.5733 137.323 11.3206 136.975 11.0333C136.652 10.7804 136.345 10.5081 136.055 10.2178V30.8491H142.164V17.6956C142.188 16.5675 142.446 15.4566 142.922 14.4338C143.855 12.3951 145.61 10.6663 147.903 10.6663C149.891 10.6663 150.872 12.0078 150.872 15.4246V27.5057C150.846 28.0155 150.873 28.5267 150.954 29.0306V29.0918C151.125 30.4822 152.937 30.8165 154.082 30.8451C154.832 30.8824 155.582 30.7543 156.277 30.4699C159.556 29.0633 162.122 25.5364 164.049 22.7842C165.173 21.1859 166.493 19.351 168.309 18.4703C169.938 17.6549 171.853 17.557 173.649 17.4999C174.203 17.4999 174.39 17.4999 174.765 17.4999C176.089 17.4999 177.653 16.8394 177.966 15.4613C178.052 15.0052 178.018 14.5346 177.869 14.0954ZM168.008 17.9892C167.269 18.369 166.601 18.8723 166.032 19.4774L165.694 19.8118C165.694 19.4448 165.723 19.0534 165.743 18.6742C165.743 18.5641 165.743 18.4377 165.743 18.2665C165.743 18.0952 165.743 17.9892 165.776 17.8587C165.8 17.4959 165.82 17.1534 165.841 16.8516C165.841 16.6559 165.865 16.4684 165.882 16.2767C165.882 16.2237 165.882 16.1748 165.882 16.13C165.882 16.0851 165.882 15.9954 165.902 15.9465C165.902 15.7997 165.902 15.7181 165.902 15.7181L165.935 15.3879C166.051 14.0727 166.354 12.7808 166.835 11.5511C167.336 10.3768 168.224 9.26779 169.608 9.26779C172.663 9.26779 173.339 12.9374 173.506 15.2696C173.506 15.3349 173.506 15.4531 173.506 15.5917V15.6284L173.559 16.9536C171.714 17.0677 169.743 17.1452 168.008 17.9892Z" fill="#124635"/>
<path d="M50.3016 9.57763C48.7622 8.80878 47.0651 8.40952 45.3447 8.41151C42.3784 8.41151 39.5336 9.59112 37.436 11.6908C35.3385 13.7906 34.1602 16.6384 34.1602 19.6079C34.1602 22.5773 35.3385 25.4252 37.436 27.5249C39.5336 29.6246 42.3784 30.8042 45.3447 30.8042C47.8683 30.8052 50.3179 29.9516 52.2953 28.3821C54.2727 26.8126 55.6616 24.6196 56.236 22.1597C56.8105 19.6998 56.5367 17.1177 55.4593 14.8333C54.3818 12.549 52.5641 10.6966 50.3016 9.57763ZM45.361 29.9929C43.1127 29.9929 41.5975 28.0765 40.7585 25.4589C40.1925 23.5876 39.9178 21.6403 39.9439 19.6853C39.9765 15.078 41.5975 9.24328 45.3244 9.2229C47.1246 9.2229 48.4321 10.5725 49.3119 12.4848C50.265 14.552 50.713 17.2879 50.7293 19.6853V19.9055C50.7293 23.6608 49.7355 27.5179 47.6582 29.1652C47.0082 29.6934 46.1983 29.9852 45.361 29.9929Z" fill="#124635"/>
<path d="M88.2619 8.3667C86.1399 8.3667 84.4048 9.12101 82.7267 10.0996C82.075 10.4828 81.4355 10.8824 80.8042 11.2902C80.2185 11.7092 79.6032 12.0853 78.9632 12.4155C77.7006 12.9945 76.1121 12.5704 74.935 11.9384C74.5388 11.7228 74.1638 11.4702 73.8149 11.1841C73.4952 10.9287 73.1893 10.6565 72.8984 10.3687V30.9878H79.008V17.8424C79.0313 16.7143 79.2893 15.6033 79.7656 14.5806C80.1116 13.8222 80.5748 13.1232 81.1382 12.5093C81.6302 11.9598 82.2263 11.5136 82.8919 11.1965C83.5576 10.8794 84.2795 10.6978 85.0157 10.6622C87.0115 10.6622 87.985 12.0037 87.985 15.4286V26.6169C87.985 29.2182 88.1886 30.8491 93.561 30.8491H94.0864V15.131C94.0009 11.0944 92.616 8.3667 88.2619 8.3667Z" fill="#124635"/>
<path d="M67.0396 6.87437C65.0932 5.40855 62.745 4.57471 60.311 4.48505C58.8649 4.44881 57.4273 4.7169 56.0913 5.27198C55.7522 5.41283 55.4229 5.57629 55.1056 5.76126C54.804 5.90956 54.5288 6.10654 54.291 6.34432C54.2433 6.38626 54.206 6.43881 54.1821 6.49777C54.1583 6.55672 54.1485 6.62044 54.1537 6.68383C54.1588 6.74722 54.1787 6.80853 54.2118 6.86286C54.2448 6.91718 54.2901 6.96301 54.344 6.99669C54.5028 7.09455 54.682 7.06601 54.849 7.13124C55.5214 7.36314 56.1597 7.68402 56.7471 8.08534C57.301 8.44415 57.859 8.80703 58.3763 9.20253C60.4628 10.7219 61.909 12.9649 62.433 15.4939C62.5883 16.6916 62.5136 17.9081 62.2131 19.0778C61.8832 20.5865 61.1419 21.8912 60.4006 23.2286C60.3779 23.2692 60.3647 23.3145 60.3619 23.3609C60.359 23.4074 60.3667 23.4539 60.3843 23.497C60.4019 23.5401 60.429 23.5787 60.4636 23.6098C60.4981 23.641 60.5392 23.664 60.5839 23.6771C61.1643 23.75 61.7526 23.6297 62.2579 23.3346C62.8037 23.0859 63.3291 22.8005 63.8871 22.5599C64.5282 22.292 65.1525 21.9857 65.7566 21.6425C66.3164 21.3007 66.8309 20.8897 67.2881 20.4193C69.1128 18.5641 69.8541 16.0525 70.0048 13.4878C70.1034 12.185 69.8781 10.878 69.3491 9.68366C68.8217 8.57137 68.0285 7.60644 67.0396 6.87437ZM67.3166 19.453C66.9124 19.9432 66.4516 20.3839 65.944 20.7659C65.3513 21.1811 64.7148 21.5297 64.046 21.8056C63.4757 22.0625 62.9055 22.3193 62.3475 22.6211C61.982 22.8378 61.5868 22.9999 61.1745 23.1022C61.8127 22.045 62.3201 20.9141 62.6856 19.7343C63.0562 18.4704 63.1942 17.1496 63.0929 15.8364C62.9053 14.5223 62.4595 13.2585 61.7813 12.1178C61.098 10.925 60.1956 9.87225 59.1217 9.01498C58.5289 8.54804 57.9131 8.11121 57.2766 7.70615C56.581 7.20967 55.8203 6.81177 55.016 6.52372L55.35 6.3117C55.8464 6.01594 56.3736 5.77531 56.9222 5.59409C58.0266 5.22386 59.1875 5.05133 60.3517 5.08442C62.5622 5.18495 64.6954 5.92888 66.4898 7.22502C67.3745 7.8458 68.1047 8.66191 68.6241 9.61027C69.1681 10.6576 69.4358 11.8267 69.402 13.0067C69.3694 15.2859 68.7992 17.6671 67.3166 19.453Z" fill="#114635"/>
<path d="M65.4488 7.83667C64.319 6.84312 62.917 6.2124 61.4247 6.02633C60.6983 5.92861 59.9662 5.87957 59.2334 5.87955C58.7161 5.87955 57.93 5.84693 57.5349 6.24651C57.5019 6.27805 57.4772 6.31725 57.463 6.36064C57.4488 6.40403 57.4455 6.45026 57.4534 6.49523C57.4517 6.55754 57.4726 6.61837 57.5123 6.66638C57.552 6.71439 57.6078 6.74631 57.6693 6.75618C59.5673 7.16391 60.9033 8.65214 61.8645 10.2545C62.9963 12.0923 63.7381 14.1437 64.0436 16.2808C64.2014 17.6354 64.2014 19.0037 64.0436 20.3582C64.0436 20.4393 64.0758 20.5171 64.1331 20.5744C64.1904 20.6318 64.2681 20.664 64.3491 20.664C64.6816 20.6035 64.9981 20.4752 65.279 20.2873C65.56 20.0993 65.7994 19.8556 65.9824 19.5713C66.4419 18.9677 66.8313 18.3139 67.1432 17.6223C68.006 15.9458 68.3127 14.0378 68.0189 12.175C67.6626 10.4851 66.7592 8.96013 65.4488 7.83667ZM66.797 16.8394C66.5288 17.5075 66.1988 18.1491 65.8113 18.7558C65.5421 19.243 65.154 19.6541 64.6831 19.9504C64.9321 17.5634 64.6339 15.151 63.8115 12.8966C63.1068 11.0578 62.1374 9.15365 60.6997 7.77143C60.1601 7.24743 59.5329 6.82236 58.8464 6.51561H59.1193C59.7383 6.51218 60.357 6.54349 60.9725 6.60939C62.2529 6.71257 63.4816 7.1606 64.5283 7.90599C65.8011 8.8286 66.7459 10.1344 67.2247 11.6327C67.6952 13.3649 67.5439 15.2074 66.797 16.8394Z" fill="#114635"/>
<path d="M64.5431 8.56238C63.981 8.04863 63.2031 7.61236 62.4536 8.02009C62.4109 8.04532 62.3746 8.08023 62.3477 8.12203C62.3099 8.16634 62.2891 8.22273 62.2891 8.28104C62.2891 8.33935 62.3099 8.39575 62.3477 8.44006C63.3429 9.74869 64.0771 11.2368 64.5105 12.8232C64.8323 14.1524 64.759 15.6203 65.4025 16.8598C65.4439 16.9263 65.5089 16.9746 65.5845 16.995C65.6601 17.0155 65.7406 17.0065 65.8098 16.9698C67.2069 15.9301 66.9421 13.7528 66.6244 12.2646C66.3217 10.8478 65.5959 9.55661 64.5431 8.56238ZM65.765 16.1829C65.5889 15.6531 65.4674 15.1066 65.4025 14.552C65.3248 13.8582 65.2078 13.1694 65.0522 12.4889C64.6346 11.0413 63.975 9.67506 63.1012 8.44821C63.485 8.50796 63.8377 8.69455 64.1032 8.97827C64.6075 9.46144 65.036 10.0182 65.374 10.6296C65.9866 11.7739 66.2899 13.0585 66.2538 14.3563C66.2924 14.9996 66.124 15.6384 65.7732 16.1788L65.765 16.1829Z" fill="#114635"/>
<path d="M70.3055 8.7541C69.2546 6.71543 67.2996 5.10896 65.2875 4.04477C63.1408 2.89673 60.6474 2.57892 58.2819 3.15184C55.9073 3.71451 53.8015 5.02741 51.9198 6.54826C51.4919 6.82884 51.145 7.21687 50.9137 7.6736C50.9001 7.70247 50.8923 7.73377 50.8909 7.76568C50.8894 7.79759 50.8943 7.82946 50.9053 7.85945C50.9163 7.88943 50.9332 7.91692 50.9549 7.94032C50.9766 7.96372 51.0028 7.98255 51.0319 7.99571L51.0563 8.02018C51.3883 8.16988 51.7519 8.23569 52.1153 8.21181C52.5066 8.20771 52.8977 8.23635 53.2843 8.29744C54.4451 8.55839 55.447 9.37386 56.3146 10.1485C57.264 10.9847 58.0871 11.9544 58.7584 13.0272C59.3904 14.0796 59.8291 15.2368 60.0536 16.444C60.3434 17.6809 60.3504 18.9674 60.074 20.2073C59.7183 21.3884 59.2045 22.5158 58.5466 23.5589C58.3837 23.8403 58.2126 24.1216 58.0538 24.4029C57.9212 24.6032 57.8119 24.818 57.7279 25.0431C57.5935 25.4997 57.9886 25.6873 58.3674 25.7444C59.5893 25.9238 60.7705 25.516 61.9109 25.1776C62.4893 25.0104 63.0758 24.88 63.6379 24.672C64.1863 24.4722 64.7175 24.2281 65.2264 23.9422C66.2151 23.349 67.1477 22.6666 68.0124 21.9035C68.8707 21.2548 69.6142 20.4664 70.2118 19.5713C70.7969 18.5217 71.1602 17.3628 71.2789 16.1667C71.5926 13.6673 71.4704 11.0374 70.3055 8.7541ZM58.29 25.1042H58.2248C58.2737 25.0268 58.2859 25.0594 58.29 25.1042ZM70.7657 14.9109C70.7269 16.1142 70.4959 17.3035 70.0815 18.4337C69.6623 19.3846 69.0245 20.2229 68.2201 20.8801C66.5624 22.3479 64.7947 23.7342 62.6237 24.3132C61.5118 24.6068 60.3836 25.0553 59.2309 25.1287C58.9686 25.1498 58.7048 25.1403 58.4448 25.1001L58.343 25.0757C58.6159 24.5742 58.9132 24.089 59.1942 23.5915C59.8225 22.5743 60.3116 21.4772 60.6483 20.3297C60.9176 19.1722 60.9453 17.9715 60.7298 16.8028C60.5594 15.6381 60.2119 14.5064 59.6993 13.4471C59.1555 12.3798 58.4554 11.3999 57.622 10.54C56.8378 9.67183 55.9357 8.91831 54.942 8.30152C54.4664 8.00299 53.9448 7.78531 53.3983 7.6573C53.0126 7.59958 52.6234 7.56824 52.2334 7.56352C52.0786 7.56352 51.8546 7.56352 51.6632 7.53498C51.7572 7.43594 51.8564 7.34202 51.9605 7.25364C52.1764 7.07016 52.4045 6.89483 52.6244 6.71951C53.0847 6.35255 53.5571 6.01005 54.05 5.68794C55.012 5.04133 56.0452 4.50776 57.1292 4.09778C59.284 3.25687 61.6702 3.22645 63.8456 4.01216C64.9045 4.44676 65.8982 5.02579 66.7986 5.73279C67.7109 6.39536 68.5148 7.19593 69.1813 8.1058C69.8597 9.08753 70.3309 10.1974 70.5662 11.3677C70.7921 12.5398 70.8592 13.7371 70.7657 14.9272V14.9109Z" fill="#114635"/>
<path d="M132.482 1.63094C131.894 0.817875 131.022 0.256072 130.039 0.0570838C129.536 -0.0421763 129.018 -0.0242955 128.523 0.109341C128.029 0.242977 127.572 0.488779 127.187 0.827701C126.61 1.23439 126.188 1.82523 125.99 2.50349C125.902 3.16579 125.973 3.83964 126.198 4.46876C126.368 5.24229 126.714 5.9663 127.208 6.5849C127.7 7.15516 128.373 7.53937 129.114 7.67355C130.511 7.91819 132.152 7.37591 132.845 6.07116C133.182 5.3651 133.326 4.58209 133.263 3.80203C133.199 3.02198 132.93 2.27279 132.482 1.63094ZM132.45 5.4881C132.006 6.64606 130.764 7.16796 129.599 7.11903C128.238 7.0538 127.306 5.99777 126.943 4.75418C126.7 4.131 126.581 3.46608 126.593 2.79705C126.67 2.14468 127.171 1.66763 127.652 1.27213C127.947 1.01695 128.294 0.828705 128.669 0.720322C129.043 0.611939 129.437 0.585978 129.823 0.64422C130.584 0.77943 131.279 1.16377 131.798 1.73695C132.222 2.25397 132.504 2.87193 132.618 3.5307C132.733 4.18947 132.675 4.86662 132.45 5.49625V5.4881Z" fill="#114635"/>
<path d="M128.409 1.58201L128.38 1.60647L128.348 1.62686C128.078 1.82173 127.861 2.07969 127.714 2.37819C127.567 2.6767 127.495 3.00669 127.505 3.33934C127.591 3.93387 127.829 4.49588 128.197 4.97027C128.788 5.83467 129.627 6.73984 130.771 6.64606C131.623 6.57675 132.058 5.85506 132.148 5.06813C132.234 4.23839 132.057 3.40257 131.643 2.67881C131.056 1.67171 129.484 0.864396 128.409 1.58201ZM131.411 5.53295C131.365 5.64674 131.296 5.74955 131.207 5.83467C131.133 5.90611 131.044 5.96039 130.947 5.99369C130.635 6.06799 130.307 6.03792 130.014 5.90806C129.599 5.70522 129.243 5.39744 128.983 5.01513C128.633 4.61205 128.357 4.14947 128.169 3.64922C128.086 3.36445 128.096 3.06091 128.196 2.78193C128.296 2.50294 128.482 2.26279 128.727 2.09575C129.46 1.63094 130.588 2.20992 131.008 2.83783C131.368 3.39199 131.56 4.03967 131.557 4.70117C131.566 4.98553 131.516 5.26859 131.411 5.53295Z" fill="#114635"/>
<path d="M129.668 3.00098C129.709 3.02952 129.696 3.00098 129.668 3.00098V3.00098Z" fill="#114635"/>
<path d="M130.594 4.57891H130.598L130.602 4.57483L130.594 4.57891Z" fill="#114635"/>
<path d="M130.288 2.6421C130.043 2.45933 129.75 2.35296 129.445 2.3363C129.323 2.33723 129.204 2.37156 129.101 2.43555C128.997 2.49954 128.913 2.59074 128.858 2.69919C128.78 2.94572 128.761 3.2074 128.803 3.46264C128.846 3.71787 128.948 3.95931 129.103 4.16703C129.266 4.42755 129.476 4.65564 129.722 4.83979C129.955 5.03152 130.237 5.15311 130.536 5.19044C130.656 5.20362 130.778 5.18269 130.887 5.13005C130.995 5.07742 131.087 4.9952 131.151 4.89279C131.252 4.69393 131.287 4.46869 131.253 4.24858C131.211 3.92873 131.104 3.62097 130.938 3.34455C130.772 3.06813 130.55 2.82899 130.288 2.6421ZM129.42 2.9479C129.42 2.9479 129.437 2.9316 129.433 2.93975L129.42 2.9479ZM130.638 4.48506C130.64 4.49444 130.64 4.50422 130.638 4.5136V4.55845V4.58292H130.581H130.512L130.443 4.55845H130.418C130.36 4.53261 130.305 4.50263 130.251 4.46875L130.08 4.35051L130.007 4.28527C129.962 4.2445 129.921 4.20372 129.881 4.15887C129.86 4.13679 129.841 4.11365 129.824 4.08956L129.803 4.0651C129.734 3.97423 129.672 3.87736 129.62 3.7756C129.522 3.68998 129.522 3.66959 129.522 3.61251C129.522 3.55543 129.522 3.61251 129.522 3.61251V3.59212V3.56766C129.511 3.54391 129.501 3.51939 129.494 3.49427C129.494 3.44534 129.465 3.39641 129.453 3.34748C129.451 3.32442 129.451 3.30123 129.453 3.27817V3.26186C129.451 3.22519 129.451 3.18844 129.453 3.15177V3.06207C129.455 3.0322 129.455 3.00224 129.453 2.97237H129.575L129.661 2.99683H129.701C129.726 2.99683 129.762 3.0213 129.791 3.03761C129.871 3.07849 129.948 3.1234 130.023 3.17216H130.043L130.105 3.22516C130.148 3.26143 130.189 3.30096 130.227 3.34341L130.284 3.40864C130.284 3.40864 130.353 3.5065 130.284 3.40864C130.316 3.46165 130.353 3.5065 130.386 3.55543C130.444 3.65018 130.497 3.74819 130.544 3.849L130.569 3.92239C130.589 3.97539 130.606 4.0284 130.622 4.0814L130.646 4.21188C130.646 4.23634 130.646 4.25673 130.646 4.28119C130.65 4.31914 130.65 4.35741 130.646 4.39536C130.634 4.48506 130.63 4.48506 130.63 4.50953L130.638 4.48506Z" fill="#114635"/>
<path d="M130.029 4.30563C130.016 4.28524 130.016 4.2934 130.029 4.30563V4.30563Z" fill="#114635"/>
</g>
<defs>
<clipPath id="clip0_84_2899">
<rect width="178" height="31" fill="white"/>
</clipPath>
</defs>
</svg>
