<svg width="14" height="16" viewBox="0 0 14 16" fill="none" xmlns="http://www.w3.org/2000/svg">
<path d="M12.4804 3.5747C11.3556 2.02165 9.68817 0.948541 7.8091 0.568449C6.84871 0.37885 5.8576 0.413005 4.91253 0.668266C3.96746 0.923528 3.09381 1.39304 2.35932 2.04042C1.25593 2.81724 0.448903 3.94583 0.0704053 5.24138C-0.0985355 6.50645 0.0376153 7.79361 0.467469 8.9953C0.793037 10.4728 1.45363 11.8558 2.39826 13.0374C3.33958 14.1267 4.62546 14.8605 6.04182 15.1168C8.71222 15.5841 11.8497 14.5483 13.1733 12.0561C13.8181 10.7074 14.0937 9.21177 13.9719 7.72177C13.8502 6.23176 13.3355 4.80073 12.4804 3.5747ZM12.4181 10.9424C11.5695 13.1542 9.19492 14.1511 6.96829 14.0576C4.36796 13.933 2.58511 11.9159 1.89221 9.54047C1.42684 8.35014 1.19935 7.08005 1.22265 5.80213C1.37058 4.55602 2.32819 3.6448 3.24687 2.88934C3.81117 2.4019 4.4742 2.04234 5.19046 1.83532C5.90672 1.62829 6.65926 1.5787 7.39648 1.68995C8.85144 1.94822 10.1795 2.68236 11.1724 3.77719C11.9819 4.76478 12.5221 5.94516 12.7404 7.20349C12.9587 8.46182 12.8476 9.75525 12.4181 10.9579V10.9424Z" fill="#114635"/>
<path d="M4.69489 3.48119L4.64041 3.52792L4.57811 3.56686C4.063 3.9391 3.64681 4.43182 3.36589 5.00201C3.08497 5.5722 2.94786 6.20251 2.96652 6.83792C3.13037 7.97354 3.58646 9.04706 4.29005 9.9532C5.41894 11.6043 7.02274 13.3333 9.21044 13.1542C10.8376 13.0218 11.6706 11.6432 11.8419 10.1401C12.0062 8.5552 11.6685 6.9587 10.8765 5.57622C9.7554 3.65253 6.75023 2.11047 4.69489 3.48119ZM10.4328 11.028C10.345 11.2453 10.2123 11.4417 10.0435 11.6043C9.90157 11.7408 9.73148 11.8444 9.5452 11.908C8.94903 12.05 8.32277 11.9925 7.76234 11.7445C6.96863 11.357 6.2897 10.7691 5.79263 10.0389C5.12234 9.26895 4.59502 8.38537 4.23555 7.42982C4.07807 6.88588 4.09642 6.30607 4.28796 5.77319C4.47951 5.2403 4.83446 4.78157 5.30215 4.46251C6.70352 3.57465 8.86008 4.68058 9.66198 5.87996C10.3517 6.93848 10.7171 8.17564 10.713 9.43918C10.7288 9.98235 10.6334 10.523 10.4328 11.028Z" fill="#114635"/>
<path d="M8.28408 5.50624C7.81606 5.15712 7.25545 4.95393 6.6725 4.92212C6.4401 4.92388 6.21264 4.98946 6.01494 5.11169C5.81724 5.23392 5.6569 5.40811 5.5514 5.61527C5.40135 6.08617 5.36544 6.58603 5.44667 7.07355C5.52789 7.56107 5.72392 8.02227 6.01853 8.41903C6.33046 8.91666 6.73166 9.35233 7.2019 9.70408C7.64707 10.0703 8.18703 10.3026 8.75898 10.3739C8.98853 10.399 9.22052 10.3591 9.42842 10.2585C9.63632 10.158 9.81173 10.0009 9.93459 9.80533C10.1261 9.42548 10.1942 8.99524 10.1292 8.57479C10.0492 7.96385 9.84408 7.37599 9.52659 6.84799C9.2091 6.31999 8.78612 5.86321 8.28408 5.50624ZM6.62579 6.09035C6.62579 6.09035 6.65693 6.0592 6.64914 6.07478L6.62579 6.09035ZM8.95362 9.02651C8.95791 9.04443 8.95791 9.06311 8.95362 9.08103V9.1667V9.21343H8.84463H8.71227L8.57993 9.1667H8.53322C8.42284 9.11734 8.31616 9.06007 8.21402 8.99536L7.88702 8.7695L7.74689 8.64489C7.66125 8.56701 7.5834 8.48912 7.50554 8.40345C7.46691 8.36127 7.43052 8.31707 7.39654 8.27105L7.35762 8.22432C7.22466 8.05077 7.10741 7.86572 7.00726 7.67136C6.82042 7.50781 6.82042 7.46887 6.82042 7.35983C6.82042 7.2508 6.82042 7.35983 6.82042 7.35983V7.32089V7.27416C6.79891 7.2288 6.78069 7.18195 6.76592 7.13397C6.76592 7.04051 6.71142 6.94706 6.68806 6.8536C6.6843 6.80954 6.6843 6.76525 6.68806 6.7212V6.69004C6.6842 6.62 6.6842 6.5498 6.68806 6.47976V6.30842C6.69167 6.25137 6.69167 6.19414 6.68806 6.13708H6.92164L7.08512 6.18381H7.16298C7.20969 6.18381 7.27976 6.23054 7.33426 6.26169C7.48644 6.33978 7.63456 6.42556 7.77804 6.5187H7.81695L7.93373 6.61995C8.01717 6.68923 8.09526 6.76473 8.16731 6.84581L8.27629 6.97042C8.27629 6.97042 8.40864 7.15734 8.27629 6.97042C8.33857 7.07167 8.40864 7.15734 8.47093 7.2508C8.58272 7.43178 8.6841 7.619 8.77457 7.81155L8.82128 7.95174C8.86021 8.05298 8.89135 8.15423 8.92249 8.25548L8.9692 8.5047C8.9692 8.55143 8.9692 8.59037 8.9692 8.6371C8.97699 8.70958 8.97699 8.78269 8.9692 8.85517C8.94585 9.02651 8.93805 9.02651 8.93805 9.07324L8.95362 9.02651Z" fill="#114635"/>
</svg>
