<svg width="145" height="109" viewBox="0 0 145 109" fill="none" xmlns="http://www.w3.org/2000/svg">
<g clip-path="url(#clip0_275_1369)">
<path d="M62.8244 26.1562C57.0079 23.2288 50.4623 21.606 43.5206 21.606C40.5727 21.606 37.7041 21.9082 34.9147 22.4651C14.9929 26.4585 0 44.1346 0 65.311C0 89.4307 19.4939 109 43.5365 109C52.1582 109 60.1776 106.486 66.945 102.127C74.2354 97.4652 80.0519 90.6557 83.5069 82.5893C85.7892 77.2913 87.0571 71.4364 87.0571 65.3269C87.0571 48.144 77.1992 33.284 62.8402 26.1722L62.8244 26.1562ZM43.584 105.818C34.8355 105.834 28.9556 98.3721 25.6749 88.1419C23.5195 81.3802 22.5052 73.4092 22.5527 65.6133C22.6795 47.6349 28.9873 24.8675 43.4889 24.788C50.4782 24.7721 55.5815 30.0224 59.0048 37.4842C62.7134 45.5665 64.4568 56.2263 64.5202 65.5973V66.4565C64.4726 81.1097 60.6531 96.1606 52.5544 102.572C49.9869 104.609 47.0073 105.786 43.5681 105.818H43.584Z" fill="#124635"/>
<path d="M127.946 15.6236C120.608 10.0233 111.004 6.44351 101.78 6.23668C96.1856 6.1094 90.5117 7.12764 85.3451 9.30732C84.0296 9.86418 82.7459 10.4847 81.5255 11.2006C80.4478 11.837 79.1641 12.5212 78.3399 13.4758C77.6743 14.2554 77.5792 15.4327 78.546 16.0214C79.1641 16.4032 79.8614 16.2919 80.5112 16.5464C83.1579 17.3896 85.5669 18.7738 87.8967 20.2694C90.0521 21.6695 92.2234 23.0855 94.2679 24.6287C98.1508 27.588 101.923 31.2314 104.443 35.4635C106.979 39.6956 109.182 44.2936 110.022 49.1939C110.814 53.8397 110.164 58.6127 109.166 63.163C107.882 69.0497 104.997 74.1409 102.113 79.3594C101.748 80.0117 102.065 80.9345 102.826 81.1095C105.061 81.6346 107.327 80.6959 109.34 79.7731C111.464 78.7867 113.508 77.6889 115.648 76.7343C118.12 75.6365 120.608 74.5546 122.938 73.1545C125.11 71.834 127.106 70.1952 128.882 68.3815C135.982 61.1424 138.866 51.3418 139.453 41.398C139.754 36.2908 139.056 31.2155 136.917 26.5539C134.888 22.1468 131.782 18.5193 127.962 15.6077L127.946 15.6236ZM129.04 64.6903C127.471 66.5836 125.68 68.3497 123.699 69.8134C121.433 71.4999 118.865 72.7249 116.313 73.8705C114.095 74.8728 111.876 75.8592 109.705 76.9729C108.405 77.6252 106.741 78.5957 105.14 78.8503C107.47 74.6341 109.752 70.4021 111.004 65.7086C112.32 60.8401 113.144 55.542 112.589 50.4985C112.018 45.3118 109.99 40.5229 107.486 36.0044C104.887 31.2951 101.273 27.3016 97.1365 23.8969C94.8702 22.0354 92.3977 20.4126 89.957 18.7897C87.1994 16.9442 84.3307 15.2736 81.161 14.2554C81.5889 13.969 82.0168 13.6826 82.4606 13.428C84.3941 12.2666 86.4545 11.3438 88.5782 10.6279C92.8732 9.18004 97.4059 8.52773 101.923 8.6391C110.339 8.86184 118.976 12.0916 125.807 16.9919C129.262 19.4739 132.115 22.5445 134.112 26.2993C136.299 30.3882 137.202 34.9226 137.139 39.5365C137.012 48.4461 134.793 57.7217 129.04 64.6903Z" fill="#114635"/>
<path d="M121.765 19.3784C117.296 15.4645 111.971 13.0462 106.107 12.2984C103.286 11.9325 100.417 11.7097 97.5802 11.7257C95.5833 11.7257 92.5245 11.5984 90.9713 13.1576C90.6702 13.4599 90.6068 13.8099 90.6544 14.1281C90.6544 14.5895 90.9079 15.019 91.4943 15.1622C98.8798 16.7691 104.078 22.5604 107.819 28.8131C112.098 35.9885 115.236 43.9913 116.298 52.3123C116.963 57.5785 116.852 62.9084 116.298 68.1906C116.234 68.7951 116.9 69.4474 117.486 69.3838C120.165 69.1292 122.209 67.1882 123.794 65.1517C125.617 62.8289 127.059 60.2196 128.311 57.5467C131.417 50.9122 133.097 43.6095 131.687 36.2908C130.435 29.7677 126.742 23.7219 121.781 19.3784H121.765ZM127.059 54.492C125.981 57.0694 124.713 59.5832 123.176 61.922C122.162 63.4653 120.656 65.6768 118.786 66.5836C119.594 57.2444 118.754 47.8734 115.394 39.0592C112.652 31.8678 108.88 24.4537 103.286 19.0602C101.162 17.0078 98.7372 15.3213 96.0588 14.1599C96.4233 14.1599 96.772 14.1281 97.1365 14.1281C99.5455 14.0963 101.955 14.2554 104.332 14.494C109.388 15.0031 114.015 16.5305 118.184 19.5534C123.065 23.1014 126.885 28.3199 128.675 34.0952C130.767 40.857 129.753 48.0643 127.059 54.5079V54.492Z" fill="#114635"/>
<path d="M118.231 22.1946C116.044 20.174 113.017 18.4717 110.117 20.0786C109.927 20.1899 109.784 20.3331 109.689 20.4763C109.419 20.7945 109.356 21.24 109.689 21.7014C113.382 26.8245 116.615 32.6157 118.105 38.8047C119.357 44.0073 119.087 49.7191 121.575 54.5557C121.845 55.0808 122.701 55.3512 123.208 54.9853C128.644 50.9282 127.614 42.4322 126.362 36.6251C125.189 31.1838 122.352 25.9653 118.231 22.1787V22.1946ZM123.018 51.9147C122.273 49.91 121.924 47.7144 121.607 45.6143C121.211 42.9255 120.926 40.2048 120.228 37.5638C118.738 31.9316 115.949 26.6017 112.637 21.7969C114.079 21.8287 115.521 22.9424 116.536 23.8652C118.532 25.6948 120.133 27.97 121.48 30.3088C123.969 34.6204 124.967 39.9025 124.904 44.8506C124.872 47.1894 124.523 49.9895 123.002 51.8987L123.018 51.9147Z" fill="#114635"/>
<path d="M140.657 22.9423C136.568 14.9077 128.961 8.71868 121.132 4.56614C112.684 0.0794991 103.191 -1.14558 93.8718 1.08183C84.632 3.29334 76.4224 8.40047 69.1161 14.3349C67.5471 15.6077 65.9464 16.7851 65.1698 18.7261C64.932 19.3148 65.2015 19.7603 65.6294 19.983C65.6611 20.0148 65.6769 20.0467 65.7086 20.0626C66.818 20.8263 68.5614 20.7467 69.8293 20.8103C71.3191 20.8899 72.904 20.8103 74.3779 21.1445C78.9106 22.1627 82.8094 25.3447 86.1693 28.3676C89.8145 31.6451 93.1111 35.384 95.6786 39.6002C98.1668 43.705 99.7992 48.2393 100.718 52.9328C101.669 57.7854 102.05 62.7811 100.782 67.6178C99.5615 72.2795 97.2476 76.5434 94.8386 80.6959C94.2046 81.7937 93.539 82.8915 92.9209 84.0052C92.4771 84.7848 91.9066 85.628 91.653 86.5031C91.13 88.285 92.6673 89.0169 94.1571 89.2396C98.8483 89.9397 103.492 88.3487 107.945 87.0281C110.196 86.3599 112.462 85.8508 114.665 85.0553C116.789 84.2757 118.865 83.3211 120.83 82.2074C124.761 79.9799 128.232 77.1479 131.671 74.2523C134.904 71.5476 138.09 68.7315 140.277 65.0722C142.67 61.0788 143.764 56.433 144.366 51.8509C145.65 42.098 145.174 31.836 140.641 22.9264L140.657 22.9423ZM93.9035 86.7417C93.7609 86.7099 93.6341 86.6781 93.6341 86.6781C93.8243 86.4554 93.8877 86.5667 93.9035 86.7417ZM142.448 47.0302C142.179 51.6759 141.513 56.4171 139.786 60.7606C138.248 64.6108 135.602 67.6814 132.543 70.4021C126.108 76.1138 119.214 81.5391 110.767 83.7825C106.44 84.928 102.066 86.694 97.5646 86.9804C96.5503 87.044 95.5201 87.044 94.5058 86.8849C94.4741 86.8849 94.2997 86.8372 94.1096 86.7895C95.1556 84.8325 96.3125 82.9233 97.4219 80.9982C99.72 76.9729 101.907 72.7727 103.08 68.2542C104.269 63.688 104.094 59.1218 103.381 54.492C102.7 49.9576 101.4 45.5187 99.3713 41.398C97.3268 37.2136 94.4582 33.427 91.2885 30.0382C88.2297 26.7766 84.7271 23.5946 80.8759 21.3036C79.0533 20.2217 76.9454 19.2034 74.8533 18.7898C73.3636 18.4875 71.8262 18.5034 70.3206 18.4238C69.7184 18.392 68.8625 18.4079 68.1176 18.3125C68.4663 17.9147 68.8784 17.5488 69.2746 17.2147C70.1146 16.4987 70.9863 15.8146 71.8579 15.1145C73.6488 13.6826 75.4873 12.3462 77.3891 11.0893C81.1453 8.60731 85.1392 6.44353 89.3708 4.90025C97.8498 1.78188 106.995 1.3364 115.505 4.56614C119.642 6.12533 123.525 8.46411 127.059 11.1052C130.546 13.7144 133.795 16.801 136.331 20.3649C139.025 24.1674 140.768 28.5745 141.719 33.1247C142.686 37.675 142.702 42.3526 142.432 46.9824L142.448 47.0302Z" fill="#114635"/>
</g>
<defs>
<clipPath id="clip0_275_1369">
<rect width="145" height="109" fill="white"/>
</clipPath>
</defs>
</svg>
