<svg width="1577" height="483" viewBox="0 0 1577 483" fill="none" xmlns="http://www.w3.org/2000/svg">
<path d="M279.501 33.9497C267.29 17.0881 249.186 5.43711 228.785 1.31041C218.357 -0.748095 207.597 -0.377274 197.336 2.39414C187.075 5.16554 177.59 10.2631 169.615 17.2918C157.636 25.7259 148.874 37.9792 144.764 52.0451C142.93 65.7802 144.408 79.755 149.075 92.8019C152.61 108.844 159.782 123.858 170.038 136.687C180.258 148.514 194.219 156.482 209.597 159.264C238.59 164.338 272.654 153.092 287.024 126.033C294.025 111.391 297.017 95.1522 295.695 78.975C294.374 62.7978 288.785 47.2609 279.501 33.9497ZM278.825 113.941C269.611 137.956 243.831 148.779 219.656 147.764C191.424 146.412 172.067 124.511 164.544 98.721C159.491 85.7973 157.022 72.0078 157.275 58.1332C158.881 44.604 169.277 34.7107 179.252 26.5086C185.378 21.2165 192.577 17.3127 200.354 15.065C208.13 12.8173 216.301 12.2789 224.305 13.4867C240.101 16.2908 254.521 24.2614 265.3 36.1482C274.089 46.8705 279.954 59.6861 282.324 73.348C284.694 87.0099 283.489 101.053 278.825 114.11V113.941Z" fill="#114635" fill-opacity="0.5"/>
<path d="M194.973 32.9345L194.381 33.4418L193.705 33.8646C188.112 37.906 183.594 43.2555 180.544 49.4462C177.494 55.6368 176.005 62.4802 176.208 69.3789C177.987 81.7085 182.938 93.3638 190.577 103.202C202.834 121.128 220.247 139.9 243.999 137.955C261.665 136.518 270.709 121.551 272.569 105.231C274.353 88.0237 270.687 70.6902 262.087 55.6805C249.916 34.7947 217.288 18.0523 194.973 32.9345ZM257.27 114.871C256.316 117.231 254.876 119.363 253.043 121.128C251.503 122.61 249.656 123.735 247.633 124.426C241.161 125.967 234.361 125.343 228.277 122.65C219.659 118.444 212.288 112.061 206.891 104.132C199.614 95.773 193.889 86.1798 189.986 75.8052C188.276 69.8996 188.475 63.6046 190.555 57.8189C192.634 52.0333 196.488 47.0529 201.566 43.5887C216.781 33.9491 240.195 45.9564 248.901 58.9783C256.39 70.4707 260.356 83.9027 260.312 97.6212C260.484 103.518 259.448 109.388 257.27 114.871Z" fill="#114635" fill-opacity="0.5"/>
<path d="M233.941 54.918C228.86 51.1276 222.773 48.9215 216.444 48.5762C213.921 48.5953 211.451 49.3073 209.305 50.6344C207.158 51.9614 205.417 53.8527 204.272 56.1018C202.643 61.2145 202.253 66.6415 203.135 71.9346C204.017 77.2277 206.145 82.2349 209.344 86.5426C212.73 91.9455 217.086 96.6757 222.192 100.495C227.025 104.471 232.887 106.993 239.097 107.767C241.589 108.04 244.108 107.606 246.365 106.514C248.622 105.423 250.527 103.718 251.861 101.594C253.94 97.4698 254.679 92.7986 253.974 88.2338C253.106 81.6007 250.878 75.2182 247.431 69.4856C243.984 63.7531 239.392 58.7938 233.941 54.918ZM215.937 61.2598C215.937 61.2598 216.275 60.9216 216.19 61.0907L215.937 61.2598ZM241.21 93.1381C241.257 93.3327 241.257 93.5355 241.21 93.73V94.6602V95.1675H240.027H238.59L237.153 94.6602H236.646C235.448 94.1242 234.289 93.5025 233.18 92.7999L229.63 90.3477L228.109 88.9948C227.179 88.1492 226.334 87.3036 225.488 86.3735C225.069 85.9155 224.674 85.4356 224.305 84.936L223.882 84.4287C222.439 82.5444 221.166 80.5352 220.078 78.4251C218.05 76.6494 218.05 76.2266 218.05 75.0428C218.05 73.8589 218.05 75.0428 218.05 75.0428V74.62V74.1126C217.816 73.6202 217.619 73.1115 217.458 72.5906C217.458 71.5759 216.866 70.5612 216.613 69.5465C216.572 69.0682 216.572 68.5873 216.613 68.109V67.7708C216.571 67.0103 216.571 66.2482 216.613 65.4877V63.6275C216.652 63.008 216.652 62.3867 216.613 61.7672H219.149L220.924 62.2745H221.769C222.276 62.2745 223.037 62.7819 223.629 63.1201C225.281 63.9679 226.889 64.8993 228.447 65.9105H228.869L230.137 67.0098C231.043 67.762 231.891 68.5817 232.673 69.4619L233.856 70.8149C233.856 70.8149 235.293 72.8443 233.856 70.8149C234.533 71.9141 235.293 72.8443 235.97 73.859C237.183 75.824 238.284 77.8566 239.266 79.9471L239.773 81.4692C240.196 82.5684 240.534 83.6677 240.872 84.7669L241.379 87.4728C241.379 87.9801 241.379 88.4029 241.379 88.9102C241.464 89.6972 241.464 90.4909 241.379 91.2779C241.126 93.1381 241.041 93.1381 241.041 93.6455L241.21 93.1381Z" fill="#114635" fill-opacity="0.5"/>
<path d="M129.828 199.636C119.98 206.768 113.176 217.342 110.765 229.257C109.563 235.347 109.78 241.632 111.398 247.625C113.017 253.617 115.994 259.157 120.099 263.815C125.025 270.811 132.182 275.929 140.397 278.329C148.419 279.4 156.581 278.537 164.201 275.811C173.57 273.747 182.339 269.558 189.832 263.568C196.739 257.599 201.393 249.445 203.018 240.464C205.981 223.53 199.413 203.635 183.609 195.242C175.058 191.154 165.573 189.406 156.125 190.178C146.677 190.95 137.603 194.214 129.828 199.636ZM176.547 200.031C190.573 205.412 196.894 220.469 196.302 234.589C195.511 251.078 182.721 262.383 167.658 266.777C160.11 269.728 152.056 271.17 143.953 271.022C136.051 270.084 130.273 264.012 125.482 258.187C122.391 254.608 120.111 250.404 118.799 245.862C117.486 241.32 117.171 236.548 117.877 231.874C119.515 222.647 124.17 214.226 131.112 207.93C137.375 202.797 144.86 199.372 152.839 197.987C160.818 196.603 169.02 197.307 176.646 200.031L176.547 200.031Z" fill="#114635" fill-opacity="0.5"/>
<path d="M129.236 249.004L129.532 249.35L129.779 249.745C132.139 253.011 135.264 255.65 138.879 257.432C142.495 259.213 146.492 260.083 150.521 259.964C157.722 258.925 164.529 256.033 170.275 251.572C180.745 244.413 191.709 234.243 190.573 220.371C189.733 210.053 180.992 204.771 171.46 203.684C161.41 202.642 151.287 204.784 142.52 209.806C130.322 216.915 120.544 235.971 129.236 249.004ZM177.09 212.62C178.469 213.177 179.714 214.018 180.745 215.089C181.61 215.988 182.268 217.067 182.671 218.248C183.571 222.029 183.207 226 181.634 229.553C179.177 234.586 175.449 238.892 170.818 242.044C165.936 246.294 160.333 249.638 154.274 251.917C150.825 252.916 147.148 252.799 143.769 251.585C140.39 250.37 137.481 248.119 135.458 245.154C129.828 236.268 136.841 222.593 144.446 217.508C151.159 213.134 159.003 210.817 167.016 210.843C170.46 210.743 173.888 211.348 177.09 212.62Z" fill="#114635" fill-opacity="0.5"/>
<path d="M142.075 226.245C139.861 229.213 138.573 232.768 138.371 236.464C138.382 237.938 138.798 239.38 139.573 240.634C140.348 241.888 141.453 242.904 142.766 243.573C145.752 244.525 148.922 244.752 152.014 244.237C155.105 243.722 158.029 242.479 160.545 240.611C163.701 238.633 166.464 236.089 168.694 233.107C171.016 230.284 172.489 226.86 172.941 223.234C173.101 221.778 172.847 220.307 172.21 218.989C171.572 217.67 170.576 216.558 169.336 215.779C166.927 214.565 164.199 214.133 161.533 214.545C157.659 215.052 153.931 216.353 150.583 218.366C147.235 220.379 144.339 223.062 142.075 226.245ZM145.779 236.761C145.779 236.761 145.581 236.563 145.68 236.612L145.779 236.761ZM164.397 222C164.511 221.972 164.63 221.972 164.743 222L165.286 222L165.583 222L165.583 222.691L165.583 223.53L165.286 224.369L165.286 224.665C164.973 225.365 164.61 226.042 164.2 226.689L162.768 228.763L161.978 229.651C161.484 230.195 160.99 230.688 160.447 231.182C160.179 231.427 159.899 231.658 159.607 231.873L159.311 232.12C158.21 232.963 157.037 233.706 155.804 234.342C154.767 235.526 154.52 235.526 153.829 235.526C153.137 235.526 153.829 235.526 153.829 235.526L153.582 235.526L153.286 235.526C152.998 235.663 152.701 235.778 152.397 235.872C151.804 235.872 151.211 236.218 150.619 236.366C150.339 236.389 150.059 236.389 149.779 236.366L149.582 236.366C149.138 236.39 148.692 236.39 148.248 236.366L147.162 236.366C146.8 236.343 146.437 236.343 146.075 236.366L146.075 234.885L146.372 233.848L146.372 233.354C146.372 233.058 146.668 232.614 146.865 232.268C147.361 231.303 147.905 230.364 148.495 229.454L148.495 229.207L149.137 228.467C149.577 227.938 150.055 227.442 150.569 226.986L151.36 226.295C151.36 226.295 152.545 225.455 151.36 226.295C152.002 225.9 152.545 225.455 153.137 225.06C154.285 224.351 155.472 223.709 156.693 223.135L157.582 222.839C158.224 222.592 158.866 222.394 159.508 222.197L161.089 221.901C161.385 221.901 161.632 221.901 161.928 221.901C162.388 221.851 162.851 221.851 163.311 221.901C164.397 222.049 164.397 222.098 164.694 222.098L164.397 222Z" fill="#114635" fill-opacity="0.5"/>
<path d="M19.8283 279.636C9.98025 286.768 3.17553 297.342 0.76534 309.257C-0.436926 315.347 -0.220348 321.632 1.39829 327.625C3.01693 333.617 5.99416 339.157 10.0993 343.815C15.0252 350.811 22.1817 355.929 30.3969 358.329C38.4188 359.4 46.5808 358.537 54.2008 355.811C63.57 353.747 72.3394 349.558 79.8321 343.568C86.7392 337.599 91.3928 329.445 93.0181 320.464C95.9813 303.53 89.413 283.635 73.6095 275.242C65.0575 271.154 55.5735 269.406 46.1252 270.178C36.677 270.95 27.6026 274.214 19.8283 279.636ZM66.5473 280.031C80.5729 285.412 86.8943 300.469 86.3016 314.589C85.5115 331.078 72.7205 342.383 57.6578 346.777C50.1098 349.728 42.0561 351.17 33.9526 351.022C26.0509 350.084 20.2728 344.012 15.4823 338.187C12.3914 334.608 10.1114 330.404 8.79867 325.862C7.4859 321.32 7.17146 316.548 7.8769 311.874C9.5146 302.647 14.1699 294.226 21.1123 287.93C27.3747 282.797 34.8596 279.372 42.8388 277.987C50.818 276.603 59.0198 277.307 66.6461 280.031L66.5473 280.031Z" fill="#114635" fill-opacity="0.5"/>
<path d="M19.2355 329.004L19.5319 329.35L19.7788 329.745C22.1392 333.011 25.2636 335.65 28.8792 337.432C32.4948 339.213 36.4917 340.083 40.5208 339.964C47.7219 338.925 54.5292 336.033 60.2752 331.572C70.745 324.413 81.7086 314.243 80.5728 300.371C79.7332 290.053 70.9919 284.771 61.4605 283.684C51.4103 282.642 41.2867 284.784 32.5203 289.806C20.322 296.915 10.5436 315.971 19.2355 329.004ZM67.0904 292.62C68.4687 293.177 69.714 294.018 70.745 295.089C71.6103 295.988 72.2677 297.067 72.671 298.248C73.571 302.029 73.2068 306 71.6339 309.553C69.1771 314.586 65.4492 318.892 60.8184 322.044C55.9363 326.294 50.3334 329.638 44.2742 331.917C40.825 332.916 37.1484 332.799 33.7693 331.585C30.3902 330.37 27.4814 328.119 25.4582 325.154C19.8282 316.268 26.841 302.593 34.4464 297.508C41.1586 293.134 49.0035 290.817 57.0157 290.843C60.46 290.743 63.8884 291.348 67.0904 292.62Z" fill="#114635" fill-opacity="0.5"/>
<path d="M32.075 306.245C29.8613 309.213 28.5728 312.768 28.3711 316.464C28.3823 317.938 28.7981 319.38 29.5732 320.634C30.3483 321.888 31.4528 322.904 32.7664 323.573C35.7525 324.525 38.9221 324.752 42.0135 324.237C45.105 323.722 48.0294 322.479 50.5453 320.611C53.7009 318.633 56.4635 316.089 58.694 313.107C61.0163 310.284 62.4891 306.86 62.9412 303.234C63.1008 301.778 62.8473 300.307 62.2098 298.989C61.5722 297.67 60.5763 296.558 59.336 295.779C56.9273 294.565 54.1992 294.133 51.5331 294.545C47.659 295.052 43.9313 296.353 40.5832 298.366C37.2351 300.379 34.3387 303.062 32.075 306.245ZM35.779 316.761C35.779 316.761 35.5814 316.563 35.6802 316.612L35.779 316.761ZM54.3974 302C54.5111 301.972 54.6295 301.972 54.7431 302L55.2864 302L55.5827 302L55.5827 302.691L55.5827 303.53L55.2864 304.369L55.2864 304.665C54.9734 305.365 54.6103 306.042 54.1999 306.689L52.7677 308.763L51.9775 309.651C51.4837 310.195 50.9898 310.688 50.4466 311.182C50.1791 311.427 49.8988 311.658 49.607 311.873L49.3107 312.12C48.2102 312.963 47.0367 313.706 45.8043 314.342C44.7672 315.526 44.5203 315.526 43.8289 315.526C43.1375 315.526 43.8289 315.526 43.8289 315.526L43.5819 315.526L43.2856 315.526C42.998 315.663 42.7009 315.778 42.3967 315.872C41.804 315.872 41.2114 316.218 40.6188 316.366C40.3394 316.389 40.0586 316.389 39.7792 316.366L39.5817 316.366C39.1375 316.39 38.6924 316.39 38.2483 316.366L37.1618 316.366C36.8 316.343 36.4371 316.343 36.0753 316.366L36.0753 314.885L36.3716 313.848L36.3716 313.354C36.3716 313.058 36.6679 312.614 36.8655 312.268C37.3606 311.303 37.9046 310.364 38.4952 309.454L38.4952 309.207L39.1372 308.467C39.5765 307.938 40.0553 307.442 40.5694 306.986L41.3596 306.295C41.3596 306.295 42.5448 305.455 41.3596 306.295C42.0016 305.9 42.5448 305.455 43.1375 305.06C44.2851 304.351 45.4723 303.709 46.6932 303.135L47.5822 302.839C48.2242 302.592 48.8662 302.394 49.5082 302.197L51.0886 301.901C51.3849 301.901 51.6318 301.901 51.9281 301.901C52.3878 301.851 52.8513 301.851 53.311 301.901C54.3974 302.049 54.3974 302.098 54.6938 302.098L54.3974 302Z" fill="#114635" fill-opacity="0.5"/>
<path d="M24.0601 93.6928C12.1103 102.347 3.85327 115.177 0.928682 129.635C-0.530177 137.025 -0.267376 144.651 1.69672 151.923C3.66081 159.195 7.27346 165.917 12.2547 171.569C18.2319 180.059 26.9158 186.268 36.8843 189.18C46.6183 190.48 56.5222 189.433 65.7686 186.125C77.1374 183.62 87.7783 178.537 96.8702 171.269C105.251 164.026 110.898 154.132 112.87 143.234C116.466 122.686 108.496 98.545 89.3195 88.3612C78.9423 83.3999 67.4342 81.2793 55.9695 82.2159C44.5047 83.1526 33.4937 87.113 24.0601 93.6928ZM80.7501 94.172C97.7691 100.702 105.44 118.972 104.72 136.105C103.762 156.113 88.2409 169.831 69.9634 175.163C60.8045 178.743 51.0318 180.494 41.1989 180.315C31.6108 179.176 24.5995 171.808 18.7866 164.739C15.0361 160.397 12.2695 155.296 10.6765 149.784C9.08357 144.273 8.70202 138.483 9.55802 132.81C11.5452 121.615 17.194 111.396 25.6182 103.757C33.2171 97.5281 42.2995 93.3717 51.9816 91.6921C61.6638 90.0125 71.616 90.8668 80.8699 94.172L80.7501 94.172Z" fill="#114635" fill-opacity="0.5"/>
<path d="M23.3411 153.598L23.7006 154.017L24.0002 154.496C26.8644 158.46 30.6556 161.662 35.0429 163.824C39.4302 165.985 44.2801 167.04 49.1692 166.896C57.9071 165.636 66.1673 162.126 73.1396 156.713C85.8439 148.027 99.1474 135.686 97.7691 118.853C96.7504 106.333 86.1435 99.9232 74.5778 98.6053C62.3827 97.3409 50.0985 99.9394 39.4611 106.034C24.6594 114.66 12.7941 137.783 23.3411 153.598ZM81.4093 109.448C83.0818 110.124 84.5929 111.144 85.8439 112.443C86.8938 113.535 87.6915 114.844 88.181 116.277C89.2731 120.864 88.831 125.683 86.9225 129.995C83.9414 136.103 79.4178 141.327 73.7987 145.151C67.8746 150.309 61.076 154.366 53.7235 157.132C49.5382 158.344 45.0769 158.203 40.9767 156.729C36.8764 155.255 33.3468 152.524 30.8917 148.925C24.0602 138.142 32.5697 121.549 41.7983 115.379C49.943 110.071 59.4622 107.26 69.1844 107.292C73.3638 107.17 77.5239 107.904 81.4093 109.448Z" fill="#114635" fill-opacity="0.5"/>
<path d="M38.9202 125.981C36.234 129.582 34.6705 133.896 34.4258 138.381C34.4394 140.169 34.9439 141.92 35.8844 143.441C36.8249 144.962 38.1652 146.196 39.7592 147.007C43.3825 148.162 47.2286 148.438 50.9798 147.813C54.7311 147.188 58.2797 145.68 61.3326 143.413C65.1616 141.013 68.5138 137.926 71.2203 134.308C74.0382 130.882 75.8254 126.728 76.374 122.327C76.5677 120.561 76.2601 118.776 75.4865 117.176C74.7128 115.576 73.5044 114.227 71.9994 113.281C69.0766 111.808 65.7662 111.284 62.5311 111.784C57.8302 112.399 53.3069 113.978 49.2443 116.421C45.1816 118.863 41.667 122.118 38.9202 125.981ZM43.4147 138.741C43.4147 138.741 43.175 138.501 43.2948 138.561L43.4147 138.741ZM66.0068 120.829C66.1447 120.796 66.2884 120.796 66.4263 120.829L67.0855 120.829L67.445 120.829L67.445 121.668L67.445 122.686L67.0855 123.705L67.0855 124.064C66.7056 124.913 66.265 125.734 65.7671 126.52L64.0292 129.036L63.0704 130.114C62.4711 130.773 61.8719 131.372 61.2127 131.971C60.8881 132.269 60.548 132.549 60.194 132.81L59.8344 133.11C58.499 134.133 57.0751 135.035 55.5797 135.805C54.3212 137.243 54.0216 137.243 53.1826 137.243C52.3437 137.243 53.1826 137.243 53.1826 137.243L52.883 137.243L52.5234 137.243C52.1744 137.409 51.8139 137.549 51.4448 137.662C50.7257 137.662 50.0065 138.082 49.2874 138.261C48.9485 138.29 48.6077 138.29 48.2687 138.261L48.029 138.261C47.4901 138.291 46.9499 138.291 46.411 138.261L45.0926 138.261C44.6536 138.234 44.2133 138.234 43.7742 138.261L43.7742 136.464L44.1338 135.206L44.1338 134.607C44.1338 134.248 44.4933 133.709 44.7331 133.289C45.3339 132.118 45.994 130.979 46.7106 129.875L46.7106 129.575L47.4896 128.677C48.0227 128.035 48.6037 127.434 49.2275 126.879L50.1863 126.041C50.1863 126.041 51.6245 125.023 50.1863 126.041C50.9654 125.562 51.6245 125.023 52.3437 124.543C53.7362 123.683 55.1768 122.903 56.6583 122.207L57.737 121.848C58.516 121.548 59.2951 121.308 60.0741 121.069L61.9917 120.709C62.3513 120.709 62.6509 120.709 63.0105 120.709C63.5682 120.649 64.1307 120.649 64.6884 120.709C66.0068 120.889 66.0068 120.949 66.3663 120.949L66.0068 120.829Z" fill="#114635" fill-opacity="0.5"/>
<path d="M200.607 337.502C184.899 331.513 167.516 331.65 151.909 337.886C143.955 341.108 136.849 346.118 131.144 352.529C125.438 358.94 121.285 366.579 119.007 374.855C114.645 385.851 114.146 398.004 117.592 409.324C122.429 419.414 129.609 428.2 138.532 434.95C148.016 444.223 159.502 451.193 172.105 455.323C184.24 458.791 197.196 457.999 208.815 453.077C230.645 443.679 248.682 421.014 246.42 396.379C244.672 383.391 239.511 371.098 231.463 360.755C223.414 350.411 212.767 342.387 200.607 337.502ZM235.533 391.838C239.931 412.136 227.303 430.851 210.523 440.859C190.853 452.433 168.09 446.2 151.6 432.106C142.47 425.61 134.702 417.388 128.736 407.903C123.837 398.053 126.484 386.771 129.594 376.818C131.392 370.533 134.528 364.712 138.787 359.754C143.046 354.796 148.327 350.818 154.269 348.093C166.18 343 179.446 342.007 191.986 345.268C202.666 348.624 212.297 354.687 219.941 362.868C227.585 371.049 232.982 381.068 235.608 391.952L235.533 391.838Z" fill="#114635" fill-opacity="0.5"/>
<path d="M143.057 374.205L142.882 374.809L142.612 375.394C140.621 380.598 139.935 386.211 140.613 391.742C141.291 397.273 143.312 402.554 146.501 407.125C153.156 414.667 161.657 420.35 171.169 423.617C187.378 430.306 207.444 435.284 222.629 423.464C233.927 414.679 233.417 400.568 227.455 388.721C221.048 376.307 210.904 366.22 198.456 359.884C180.995 351.159 151.549 354.281 143.057 374.205ZM221.383 402C221.783 404.016 221.753 406.093 221.296 408.096C220.91 409.779 220.161 411.356 219.1 412.717C215.409 416.621 210.54 419.207 205.238 420.08C197.556 421.05 189.754 419.998 182.601 417.029C173.987 414.602 165.876 410.654 158.651 405.372C154.884 402.138 152.234 397.798 151.079 392.97C149.925 388.141 150.325 383.072 152.223 378.486C158.238 365.244 179.366 362.999 191.007 367.944C201.149 372.395 209.77 379.715 215.809 389.001C218.533 392.909 220.43 397.333 221.383 402Z" fill="#114635" fill-opacity="0.5"/>
<path d="M179.105 371.819C173.996 371.506 168.908 372.708 164.48 375.274C162.784 376.403 161.431 377.976 160.568 379.822C159.705 381.668 159.365 383.716 159.586 385.742C160.747 389.916 162.885 393.755 165.822 396.94C168.759 400.126 172.411 402.567 176.477 404.062C181.155 406.214 186.19 407.483 191.328 407.804C196.352 408.352 201.428 407.463 205.965 405.239C207.769 404.321 209.279 402.914 210.321 401.178C211.363 399.442 211.895 397.448 211.857 395.423C211.437 391.717 209.87 388.235 207.375 385.463C203.854 381.367 199.526 378.04 194.662 375.692C189.798 373.345 184.502 372.026 179.105 371.819ZM169.748 384.067C169.748 384.067 169.827 383.689 169.844 383.84L169.748 384.067ZM200.922 394.422C201.039 394.533 201.129 394.67 201.184 394.822L201.595 395.45L201.819 395.793L201.02 396.316L200.049 396.952L198.854 397.245L198.512 397.469C197.465 397.637 196.408 397.73 195.348 397.746L191.865 397.659L190.238 397.418C189.236 397.258 188.291 397.061 187.309 396.807C186.823 396.683 186.344 396.533 185.874 396.359L185.364 396.203C183.555 395.569 181.806 394.775 180.138 393.83C177.983 393.528 177.796 393.242 177.272 392.443C176.748 391.643 177.272 392.443 177.272 392.443L177.085 392.157L176.861 391.814C176.485 391.585 176.126 391.329 175.788 391.048C175.339 390.362 174.49 389.939 173.87 389.365C173.631 389.06 173.418 388.736 173.234 388.394L173.085 388.166C172.72 387.671 172.383 387.156 172.075 386.624L171.252 385.367C171.004 384.931 170.73 384.511 170.429 384.11L172.142 382.989L173.566 382.546L174.137 382.172C174.479 381.948 175.218 381.954 175.767 381.921C177.258 381.763 178.756 381.681 180.256 381.675L180.541 381.488L181.884 381.67C182.829 381.777 183.764 381.956 184.682 382.204L186.08 382.595C186.08 382.595 187.948 383.33 186.08 382.595C187.023 383.038 187.948 383.33 188.854 383.717C190.543 384.507 192.186 385.393 193.774 386.371L194.79 387.175C195.561 387.731 196.276 388.324 196.991 388.917L198.53 390.52C198.754 390.863 198.941 391.148 199.166 391.491C199.571 391.985 199.922 392.522 200.213 393.091C200.865 394.459 200.808 394.497 201.032 394.84L200.922 394.422Z" fill="#114635" fill-opacity="0.5"/>
<path d="M1297.5 448.943C1309.71 465.805 1327.81 477.455 1348.22 481.582C1358.64 483.641 1369.4 483.27 1379.66 480.498C1389.92 477.727 1399.41 472.629 1407.38 465.601C1419.36 457.167 1428.13 444.913 1432.24 430.848C1434.07 417.112 1432.59 403.138 1427.92 390.091C1424.39 374.049 1417.22 359.034 1406.96 346.205C1396.74 334.379 1382.78 326.411 1367.4 323.628C1338.41 318.555 1304.35 329.801 1289.98 356.859C1282.98 371.502 1279.98 387.74 1281.3 403.918C1282.63 420.095 1288.21 435.632 1297.5 448.943ZM1298.18 368.951C1307.39 344.937 1333.17 334.113 1357.34 335.128C1385.58 336.481 1404.93 358.381 1412.46 384.172C1417.51 397.095 1419.98 410.885 1419.73 424.759C1418.12 438.289 1407.72 448.182 1397.75 456.384C1391.62 461.676 1384.42 465.58 1376.65 467.828C1368.87 470.075 1360.7 470.614 1352.7 469.406C1336.9 466.602 1322.48 458.631 1311.7 446.744C1302.91 436.022 1297.05 423.206 1294.68 409.545C1292.31 395.883 1293.51 381.84 1298.18 368.782L1298.18 368.951Z" fill="#114635" fill-opacity="0.5"/>
<path d="M1382.03 449.958L1382.62 449.451L1383.3 449.028C1388.89 444.987 1393.41 439.637 1396.46 433.446C1399.51 427.256 1400.99 420.412 1400.79 413.514C1399.01 401.184 1394.06 389.529 1386.42 379.691C1374.17 361.764 1356.75 342.993 1333 344.937C1315.34 346.375 1306.29 361.342 1304.43 377.661C1302.65 394.869 1306.31 412.202 1314.91 427.212C1327.08 448.098 1359.71 464.84 1382.03 449.958ZM1319.73 368.022C1320.68 365.662 1322.12 363.53 1323.96 361.764C1325.5 360.283 1327.34 359.157 1329.37 358.467C1335.84 356.926 1342.64 357.549 1348.72 360.242C1357.34 364.449 1364.71 370.832 1370.11 378.76C1377.39 387.12 1383.11 396.713 1387.01 407.087C1388.72 412.993 1388.52 419.288 1386.45 425.074C1384.37 430.859 1380.51 435.84 1375.43 439.304C1360.22 448.943 1336.81 436.936 1328.1 423.914C1320.61 412.422 1316.64 398.99 1316.69 385.271C1316.52 379.374 1317.55 373.504 1319.73 368.022Z" fill="#114635" fill-opacity="0.5"/>
<path d="M1343.06 427.975C1348.14 431.765 1354.23 433.971 1360.56 434.316C1363.08 434.297 1365.55 433.585 1367.7 432.258C1369.84 430.931 1371.58 429.04 1372.73 426.791C1374.36 421.678 1374.75 416.251 1373.87 410.958C1372.98 405.665 1370.86 400.658 1367.66 396.35C1364.27 390.947 1359.91 386.217 1354.81 382.398C1349.98 378.422 1344.11 375.9 1337.9 375.126C1335.41 374.853 1332.89 375.287 1330.63 376.378C1328.38 377.47 1326.47 379.175 1325.14 381.299C1323.06 385.423 1322.32 390.094 1323.03 394.659C1323.89 401.292 1326.12 407.674 1329.57 413.407C1333.02 419.14 1337.61 424.099 1343.06 427.975ZM1361.06 421.633C1361.06 421.633 1360.73 421.971 1360.81 421.802L1361.06 421.633ZM1335.79 389.754C1335.74 389.56 1335.74 389.357 1335.79 389.163L1335.79 388.232L1335.79 387.725L1336.97 387.725L1338.41 387.725L1339.85 388.232L1340.35 388.232C1341.55 388.768 1342.71 389.39 1343.82 390.093L1347.37 392.545L1348.89 393.898C1349.82 394.743 1350.67 395.589 1351.51 396.519C1351.93 396.977 1352.33 397.457 1352.7 397.957L1353.12 398.464C1354.56 400.348 1355.83 402.357 1356.92 404.468C1358.95 406.243 1358.95 406.666 1358.95 407.85C1358.95 409.034 1358.95 407.85 1358.95 407.85L1358.95 408.273L1358.95 408.78C1359.18 409.272 1359.38 409.781 1359.54 410.302C1359.54 411.317 1360.13 412.331 1360.39 413.346C1360.43 413.824 1360.43 414.305 1360.39 414.784L1360.39 415.122C1360.43 415.882 1360.43 416.644 1360.39 417.405L1360.39 419.265C1360.35 419.885 1360.35 420.506 1360.39 421.125L1357.85 421.125L1356.08 420.618L1355.23 420.618C1354.72 420.618 1353.96 420.111 1353.37 419.772C1351.72 418.925 1350.11 417.993 1348.55 416.982L1348.13 416.982L1346.86 415.883C1345.96 415.131 1345.11 414.311 1344.33 413.431L1343.14 412.078C1343.14 412.078 1341.71 410.048 1343.14 412.078C1342.47 410.978 1341.71 410.048 1341.03 409.034C1339.82 407.069 1338.72 405.036 1337.73 402.945L1337.23 401.423C1336.8 400.324 1336.47 399.225 1336.13 398.126L1335.62 395.42C1335.62 394.912 1335.62 394.49 1335.62 393.982C1335.54 393.195 1335.54 392.402 1335.62 391.615C1335.87 389.754 1335.96 389.754 1335.96 389.247L1335.79 389.754Z" fill="#114635" fill-opacity="0.5"/>
<path d="M1447.17 283.256C1457.02 276.124 1463.82 265.551 1466.23 253.635C1467.44 247.546 1467.22 241.261 1465.6 235.268C1463.98 229.275 1461.01 223.735 1456.9 219.078C1451.97 212.081 1444.82 206.964 1436.6 204.564C1428.58 203.492 1420.42 204.356 1412.8 207.081C1403.43 209.146 1394.66 213.335 1387.17 219.325C1380.26 225.294 1375.61 233.448 1373.98 242.429C1371.02 259.362 1377.59 279.258 1393.39 287.65C1401.94 291.739 1411.43 293.486 1420.87 292.715C1430.32 291.943 1439.4 288.679 1447.17 283.256ZM1400.45 282.861C1386.43 277.48 1380.11 262.423 1380.7 248.304C1381.49 231.815 1394.28 220.51 1409.34 216.116C1416.89 213.165 1424.94 211.722 1433.05 211.87C1440.95 212.808 1446.73 218.88 1451.52 224.706C1454.61 228.284 1456.89 232.489 1458.2 237.03C1459.51 241.572 1459.83 246.344 1459.12 251.019C1457.49 260.245 1452.83 268.667 1445.89 274.963C1439.63 280.096 1432.14 283.521 1424.16 284.905C1416.18 286.289 1407.98 285.585 1400.35 282.861L1400.45 282.861Z" fill="#114635" fill-opacity="0.5"/>
<path d="M1447.76 233.888L1447.47 233.543L1447.22 233.148C1444.86 229.881 1441.74 227.242 1438.12 225.461C1434.51 223.679 1430.51 222.81 1426.48 222.928C1419.28 223.967 1412.47 226.859 1406.72 231.321C1396.26 238.479 1385.29 248.649 1386.43 262.522C1387.27 272.84 1396.01 278.122 1405.54 279.208C1415.59 280.25 1425.71 278.109 1434.48 273.086C1446.68 265.977 1456.46 246.921 1447.76 233.888ZM1399.91 270.272C1398.53 269.716 1397.29 268.875 1396.26 267.804C1395.39 266.904 1394.73 265.826 1394.33 264.644C1393.43 260.864 1393.79 256.893 1395.37 253.339C1397.82 248.306 1401.55 244.001 1406.18 240.849C1411.06 236.599 1416.67 233.255 1422.73 230.975C1426.18 229.977 1429.85 230.093 1433.23 231.308C1436.61 232.522 1439.52 234.773 1441.54 237.739C1447.17 246.625 1440.16 260.3 1432.55 265.385C1425.84 269.759 1418 272.075 1409.98 272.05C1406.54 272.15 1403.11 271.545 1399.91 270.272Z" fill="#114635" fill-opacity="0.5"/>
<path d="M1434.92 256.647C1437.14 253.68 1438.43 250.125 1438.63 246.428C1438.62 244.955 1438.2 243.512 1437.43 242.259C1436.65 241.005 1435.55 239.988 1434.23 239.319C1431.25 238.368 1428.08 238.14 1424.99 238.655C1421.9 239.17 1418.97 240.413 1416.45 242.281C1413.3 244.259 1410.54 246.803 1408.31 249.785C1405.98 252.608 1404.51 256.032 1404.06 259.659C1403.9 261.114 1404.15 262.586 1404.79 263.904C1405.43 265.222 1406.42 266.334 1407.66 267.113C1410.07 268.328 1412.8 268.759 1415.47 268.348C1419.34 267.841 1423.07 266.54 1426.42 264.526C1429.76 262.513 1432.66 259.831 1434.92 256.647ZM1431.22 246.132C1431.22 246.132 1431.42 246.33 1431.32 246.28L1431.22 246.132ZM1412.6 260.893C1412.49 260.92 1412.37 260.92 1412.26 260.893L1411.71 260.893L1411.42 260.893L1411.42 260.202L1411.42 259.363L1411.71 258.523L1411.71 258.227C1412.03 257.527 1412.39 256.851 1412.8 256.203L1414.23 254.13L1415.02 253.241C1415.52 252.698 1416.01 252.204 1416.55 251.711C1416.82 251.466 1417.1 251.235 1417.39 251.019L1417.69 250.773C1418.79 249.93 1419.96 249.186 1421.2 248.551C1422.23 247.366 1422.48 247.366 1423.17 247.366C1423.86 247.366 1423.17 247.366 1423.17 247.366L1423.42 247.366L1423.71 247.366C1424 247.23 1424.3 247.114 1424.6 247.021C1425.2 247.021 1425.79 246.675 1426.38 246.527C1426.66 246.503 1426.94 246.503 1427.22 246.527L1427.42 246.527C1427.86 246.502 1428.31 246.502 1428.75 246.527L1429.84 246.527C1430.2 246.55 1430.56 246.55 1430.92 246.527L1430.92 248.008L1430.63 249.045L1430.63 249.538C1430.63 249.835 1430.33 250.279 1430.13 250.625C1429.64 251.59 1429.1 252.529 1428.5 253.439L1428.5 253.685L1427.86 254.426C1427.42 254.955 1426.94 255.45 1426.43 255.907L1425.64 256.598C1425.64 256.598 1424.46 257.437 1425.64 256.598C1425 256.993 1424.46 257.437 1423.86 257.832C1422.71 258.541 1421.53 259.184 1420.31 259.758L1419.42 260.054C1418.78 260.301 1418.13 260.498 1417.49 260.696L1415.91 260.992C1415.62 260.992 1415.37 260.992 1415.07 260.992C1414.61 261.041 1414.15 261.041 1413.69 260.992C1412.6 260.844 1412.6 260.794 1412.31 260.794L1412.6 260.893Z" fill="#114635" fill-opacity="0.5"/>
<path d="M1557.17 203.256C1567.02 196.124 1573.82 185.551 1576.23 173.635C1577.44 167.546 1577.22 161.261 1575.6 155.268C1573.98 149.275 1571.01 143.735 1566.9 139.078C1561.97 132.081 1554.82 126.964 1546.6 124.564C1538.58 123.492 1530.42 124.356 1522.8 127.081C1513.43 129.146 1504.66 133.335 1497.17 139.325C1490.26 145.294 1485.61 153.448 1483.98 162.429C1481.02 179.362 1487.59 199.258 1503.39 207.65C1511.94 211.739 1521.43 213.486 1530.87 212.715C1540.32 211.943 1549.4 208.679 1557.17 203.256ZM1510.45 202.861C1496.43 197.48 1490.11 182.423 1490.7 168.304C1491.49 151.815 1504.28 140.51 1519.34 136.116C1526.89 133.165 1534.94 131.722 1543.05 131.87C1550.95 132.808 1556.73 138.88 1561.52 144.706C1564.61 148.284 1566.89 152.489 1568.2 157.03C1569.51 161.572 1569.83 166.344 1569.12 171.019C1567.49 180.245 1562.83 188.667 1555.89 194.963C1549.63 200.096 1542.14 203.521 1534.16 204.905C1526.18 206.289 1517.98 205.585 1510.35 202.861L1510.45 202.861Z" fill="#114635" fill-opacity="0.5"/>
<path d="M1557.76 153.888L1557.47 153.543L1557.22 153.148C1554.86 149.881 1551.74 147.242 1548.12 145.461C1544.51 143.679 1540.51 142.81 1536.48 142.928C1529.28 143.967 1522.47 146.859 1516.72 151.321C1506.26 158.479 1495.29 168.649 1496.43 182.522C1497.27 192.84 1506.01 198.122 1515.54 199.208C1525.59 200.25 1535.71 198.109 1544.48 193.086C1556.68 185.977 1566.46 166.921 1557.76 153.888ZM1509.91 190.272C1508.53 189.716 1507.29 188.875 1506.26 187.804C1505.39 186.904 1504.73 185.826 1504.33 184.644C1503.43 180.864 1503.79 176.893 1505.37 173.339C1507.82 168.306 1511.55 164.001 1516.18 160.849C1521.06 156.599 1526.67 153.255 1532.73 150.975C1536.18 149.977 1539.85 150.093 1543.23 151.308C1546.61 152.522 1549.52 154.773 1551.54 157.739C1557.17 166.625 1550.16 180.3 1542.55 185.385C1535.84 189.759 1528 192.075 1519.98 192.05C1516.54 192.15 1513.11 191.545 1509.91 190.272Z" fill="#114635" fill-opacity="0.5"/>
<path d="M1544.92 176.647C1547.14 173.68 1548.43 170.125 1548.63 166.428C1548.62 164.954 1548.2 163.512 1547.43 162.258C1546.65 161.005 1545.55 159.988 1544.23 159.319C1541.25 158.368 1538.08 158.14 1534.99 158.655C1531.9 159.17 1528.97 160.413 1526.45 162.281C1523.3 164.259 1520.54 166.803 1518.31 169.785C1515.98 172.608 1514.51 176.032 1514.06 179.659C1513.9 181.114 1514.15 182.585 1514.79 183.904C1515.43 185.222 1516.42 186.334 1517.66 187.113C1520.07 188.328 1522.8 188.759 1525.47 188.348C1529.34 187.84 1533.07 186.539 1536.42 184.526C1539.76 182.513 1542.66 179.831 1544.92 176.647ZM1541.22 166.132C1541.22 166.132 1541.42 166.329 1541.32 166.28L1541.22 166.132ZM1522.6 180.893C1522.49 180.92 1522.37 180.92 1522.26 180.893L1521.71 180.893L1521.42 180.893L1521.42 180.202L1521.42 179.363L1521.71 178.523L1521.71 178.227C1522.03 177.527 1522.39 176.851 1522.8 176.203L1524.23 174.13L1525.02 173.241C1525.52 172.698 1526.01 172.204 1526.55 171.711C1526.82 171.466 1527.1 171.235 1527.39 171.019L1527.69 170.773C1528.79 169.929 1529.96 169.186 1531.2 168.551C1532.23 167.366 1532.48 167.366 1533.17 167.366C1533.86 167.366 1533.17 167.366 1533.17 167.366L1533.42 167.366L1533.71 167.366C1534 167.23 1534.3 167.114 1534.6 167.021C1535.2 167.021 1535.79 166.675 1536.38 166.527C1536.66 166.503 1536.94 166.503 1537.22 166.527L1537.42 166.527C1537.86 166.502 1538.31 166.502 1538.75 166.527L1539.84 166.527C1540.2 166.55 1540.56 166.55 1540.92 166.527L1540.92 168.008L1540.63 169.045L1540.63 169.538C1540.63 169.835 1540.33 170.279 1540.13 170.624C1539.64 171.589 1539.1 172.529 1538.5 173.438L1538.5 173.685L1537.86 174.426C1537.42 174.955 1536.94 175.45 1536.43 175.907L1535.64 176.598C1535.64 176.598 1534.46 177.437 1535.64 176.598C1535 176.993 1534.46 177.437 1533.86 177.832C1532.71 178.541 1531.53 179.184 1530.31 179.758L1529.42 180.054C1528.78 180.301 1528.13 180.498 1527.49 180.696L1525.91 180.992C1525.62 180.992 1525.37 180.992 1525.07 180.992C1524.61 181.041 1524.15 181.041 1523.69 180.992C1522.6 180.844 1522.6 180.794 1522.31 180.794L1522.6 180.893Z" fill="#114635" fill-opacity="0.5"/>
<path d="M1552.94 389.2C1564.89 380.546 1573.15 367.715 1576.07 353.257C1577.53 345.867 1577.27 338.241 1575.3 330.97C1573.34 323.698 1569.73 316.976 1564.75 311.324C1558.77 302.834 1550.08 296.624 1540.12 293.712C1530.38 292.412 1520.48 293.46 1511.23 296.767C1499.86 299.272 1489.22 304.355 1480.13 311.624C1471.75 318.867 1466.1 328.761 1464.13 339.659C1460.53 360.206 1468.5 384.348 1487.68 394.531C1498.06 399.493 1509.57 401.613 1521.03 400.677C1532.5 399.74 1543.51 395.78 1552.94 389.2ZM1496.25 388.721C1479.23 382.191 1471.56 363.92 1472.28 346.788C1473.24 326.779 1488.76 313.061 1507.04 307.73C1516.2 304.149 1525.97 302.399 1535.8 302.578C1545.39 303.716 1552.4 311.085 1558.21 318.153C1561.96 322.495 1564.73 327.597 1566.32 333.108C1567.92 338.619 1568.3 344.41 1567.44 350.082C1565.45 361.277 1559.81 371.496 1551.38 379.136C1543.78 385.365 1534.7 389.521 1525.02 391.2C1515.34 392.88 1505.38 392.026 1496.13 388.721L1496.25 388.721Z" fill="#114635" fill-opacity="0.5"/>
<path d="M1553.66 329.295L1553.3 328.876L1553 328.396C1550.14 324.433 1546.34 321.231 1541.96 319.069C1537.57 316.907 1532.72 315.852 1527.83 315.996C1519.09 317.257 1510.83 320.766 1503.86 326.18C1491.16 334.866 1477.85 347.206 1479.23 364.04C1480.25 376.56 1490.86 382.969 1502.42 384.287C1514.62 385.552 1526.9 382.953 1537.54 376.859C1552.34 368.233 1564.21 345.11 1553.66 329.295ZM1495.59 373.445C1493.92 372.769 1492.41 371.748 1491.16 370.449C1490.11 369.357 1489.31 368.049 1488.82 366.615C1487.73 362.028 1488.17 357.209 1490.08 352.897C1493.06 346.79 1497.58 341.566 1503.2 337.741C1509.13 332.584 1515.92 328.526 1523.28 325.761C1527.46 324.549 1531.92 324.69 1536.02 326.164C1540.12 327.638 1543.65 330.369 1546.11 333.967C1552.94 344.75 1544.43 361.344 1535.2 367.514C1527.06 372.821 1517.54 375.632 1507.82 375.601C1503.64 375.722 1499.48 374.989 1495.59 373.445Z" fill="#114635" fill-opacity="0.5"/>
<path d="M1538.08 356.912C1540.77 353.31 1542.33 348.997 1542.57 344.511C1542.56 342.723 1542.06 340.973 1541.12 339.452C1540.18 337.931 1538.83 336.697 1537.24 335.885C1533.62 334.73 1529.77 334.454 1526.02 335.079C1522.27 335.704 1518.72 337.212 1515.67 339.479C1511.84 341.88 1508.49 344.966 1505.78 348.585C1502.96 352.01 1501.17 356.165 1500.63 360.566C1500.43 362.332 1500.74 364.117 1501.51 365.717C1502.29 367.316 1503.5 368.666 1505 369.611C1507.92 371.085 1511.23 371.609 1514.47 371.109C1519.17 370.493 1523.69 368.915 1527.76 366.472C1531.82 364.029 1535.33 360.774 1538.08 356.912ZM1533.59 344.152C1533.59 344.152 1533.83 344.391 1533.71 344.332L1533.59 344.152ZM1510.99 362.063C1510.86 362.096 1510.71 362.096 1510.57 362.063L1509.91 362.063L1509.55 362.063L1509.55 361.225L1509.55 360.206L1509.91 359.188L1509.91 358.829C1510.29 357.979 1510.73 357.158 1511.23 356.372L1512.97 353.856L1513.93 352.778C1514.53 352.119 1515.13 351.52 1515.79 350.921C1516.11 350.624 1516.45 350.344 1516.81 350.082L1517.17 349.783C1518.5 348.76 1519.92 347.858 1521.42 347.087C1522.68 345.649 1522.98 345.649 1523.82 345.649C1524.66 345.649 1523.82 345.649 1523.82 345.649L1524.12 345.649L1524.48 345.649C1524.83 345.484 1525.19 345.344 1525.56 345.23C1526.27 345.23 1526.99 344.811 1527.71 344.631C1528.05 344.602 1528.39 344.602 1528.73 344.631L1528.97 344.631C1529.51 344.601 1530.05 344.601 1530.59 344.631L1531.91 344.631C1532.35 344.659 1532.79 344.659 1533.23 344.631L1533.23 346.428L1532.87 347.686L1532.87 348.285C1532.87 348.645 1532.51 349.184 1532.27 349.603C1531.67 350.774 1531.01 351.914 1530.29 353.018L1530.29 353.317L1529.51 354.216C1528.98 354.858 1528.4 355.459 1527.77 356.013L1526.81 356.852C1526.81 356.852 1525.38 357.87 1526.81 356.852C1526.03 357.331 1525.38 357.87 1524.66 358.349C1523.26 359.209 1521.82 359.989 1520.34 360.686L1519.26 361.045C1518.48 361.344 1517.7 361.584 1516.93 361.824L1515.01 362.183C1514.65 362.183 1514.35 362.183 1513.99 362.183C1513.43 362.243 1512.87 362.243 1512.31 362.183C1510.99 362.003 1510.99 361.943 1510.63 361.943L1510.99 362.063Z" fill="#114635" fill-opacity="0.5"/>
<path d="M1376.39 145.391C1392.1 151.38 1409.48 151.243 1425.09 145.006C1433.05 141.785 1440.15 136.774 1445.86 130.363C1451.56 123.953 1455.71 116.313 1457.99 108.038C1462.35 97.0415 1462.85 84.8884 1459.41 73.5687C1454.57 63.4789 1447.39 54.6923 1438.47 47.943C1428.98 38.6698 1417.5 31.6994 1404.89 27.5695C1392.76 24.1011 1379.8 24.8939 1368.19 29.8161C1346.36 39.2132 1328.32 61.8781 1330.58 86.5131C1332.33 99.5012 1337.49 111.794 1345.54 122.138C1353.59 132.482 1364.23 140.505 1376.39 145.391ZM1341.47 91.0547C1337.07 70.7568 1349.7 52.0417 1366.48 42.0339C1386.15 30.4599 1408.91 36.6923 1425.4 50.7868C1434.53 57.2822 1442.3 65.5049 1448.26 74.9896C1453.16 84.8394 1450.52 96.1215 1447.41 106.074C1445.61 112.359 1442.47 118.18 1438.21 123.139C1433.95 128.097 1428.67 132.075 1422.73 134.799C1410.82 139.892 1397.55 140.886 1385.01 137.624C1374.33 134.269 1364.7 128.205 1357.06 120.025C1349.42 111.844 1344.02 101.824 1341.39 90.9405L1341.47 91.0547Z" fill="#114635" fill-opacity="0.5"/>
<path d="M1433.94 108.687L1434.12 108.083L1434.39 107.498C1436.38 102.294 1437.06 96.682 1436.39 91.1509C1435.71 85.6199 1433.69 80.3384 1430.5 75.7678C1423.84 68.2256 1415.34 62.5424 1405.83 59.2754C1389.62 52.587 1369.56 47.6082 1354.37 59.4283C1343.07 68.2137 1343.58 82.3248 1349.55 94.1718C1355.95 106.585 1366.1 116.673 1378.54 123.009C1396 131.734 1425.45 128.612 1433.94 108.687ZM1355.62 80.8925C1355.22 78.8767 1355.25 76.7994 1355.7 74.7961C1356.09 73.1138 1356.84 71.5366 1357.9 70.1754C1361.59 66.2713 1366.46 63.6851 1371.76 62.8129C1379.44 61.8428 1387.25 62.8942 1394.4 65.8631C1403.01 68.2909 1411.12 72.239 1418.35 77.521C1422.12 80.7542 1424.77 85.0947 1425.92 89.923C1427.07 94.7513 1426.67 99.8204 1424.78 104.407C1418.76 117.648 1397.63 119.894 1385.99 114.948C1375.85 110.497 1367.23 103.178 1361.19 93.8913C1358.47 89.9832 1356.57 85.5598 1355.62 80.8925Z" fill="#114635" fill-opacity="0.5"/>
<path d="M1397.89 111.074C1403 111.387 1408.09 110.185 1412.52 107.619C1414.22 106.489 1415.57 104.916 1416.43 103.07C1417.3 101.224 1417.63 99.1767 1417.41 97.1507C1416.25 92.9763 1414.12 89.1378 1411.18 85.9522C1408.24 82.7666 1404.59 80.3255 1400.52 78.8303C1395.84 76.6786 1390.81 75.4099 1385.67 75.0884C1380.65 74.5403 1375.57 75.4299 1371.04 77.6537C1369.23 78.5715 1367.72 79.9788 1366.68 81.7146C1365.64 83.4505 1365.1 85.4448 1365.14 87.4693C1365.56 91.1751 1367.13 94.6574 1369.63 97.4293C1373.15 101.526 1377.47 104.852 1382.34 107.2C1387.2 109.548 1392.5 110.867 1397.89 111.074ZM1407.25 98.826C1407.25 98.826 1407.17 99.204 1407.16 99.0524L1407.25 98.826ZM1376.08 88.4705C1375.96 88.3597 1375.87 88.2227 1375.82 88.0706L1375.41 87.4423L1375.18 87.0995L1375.98 86.5762L1376.95 85.9405L1378.15 85.6477L1378.49 85.4233C1379.53 85.2553 1380.59 85.163 1381.65 85.1471L1385.14 85.2332L1386.76 85.4742C1387.76 85.6341 1388.71 85.8314 1389.69 86.0859C1390.18 86.2098 1390.66 86.3591 1391.13 86.5334L1391.64 86.6893C1393.44 87.3237 1395.19 88.1178 1396.86 89.0624C1399.02 89.3646 1399.2 89.6502 1399.73 90.4499C1400.25 91.2496 1399.73 90.4499 1399.73 90.4499L1399.91 90.7355L1400.14 91.0783C1400.52 91.3076 1400.87 91.5637 1401.21 91.8447C1401.66 92.5301 1402.51 92.9539 1403.13 93.5271C1403.37 93.8322 1403.58 94.1571 1403.77 94.4982L1403.92 94.7267C1404.28 95.2218 1404.62 95.7367 1404.93 96.269L1405.75 97.5256C1406 97.9615 1406.27 98.3812 1406.57 98.7823L1404.86 99.9041L1403.43 100.346L1402.86 100.72C1402.52 100.945 1401.78 100.938 1401.23 100.972C1399.74 101.13 1398.24 101.212 1396.74 101.218L1396.46 101.405L1395.12 101.223C1394.17 101.116 1393.24 100.937 1392.32 100.688L1390.92 100.298C1390.92 100.298 1389.05 99.5624 1390.92 100.298C1389.98 99.8542 1389.05 99.5624 1388.15 99.176C1386.46 98.3855 1384.81 97.4993 1383.23 96.5215L1382.21 95.7177C1381.44 95.162 1380.72 94.569 1380.01 93.976L1378.47 92.3724C1378.25 92.0297 1378.06 91.7441 1377.83 91.4014C1377.43 90.9072 1377.08 90.371 1376.79 89.802C1376.14 88.4331 1376.19 88.3957 1375.97 88.053L1376.08 88.4705Z" fill="#114635" fill-opacity="0.5"/>
</svg>
