<svg width="19" height="17" viewBox="0 0 19 17" fill="none" xmlns="http://www.w3.org/2000/svg">
<path d="M0.885708 2.68616L3.34138 0.49102C3.5146 0.335345 3.72049 0.211827 3.94723 0.127563C4.17397 0.0432983 4.41708 -5.26497e-05 4.66259 4.79869e-08C5.16295 4.79869e-08 5.63333 0.175364 5.98612 0.49102L8.62855 2.85534C8.80254 3.01033 8.94059 3.19456 9.03476 3.39743C9.12894 3.6003 9.17739 3.81782 9.17733 4.0375C9.17733 4.48519 8.98134 4.90607 8.62855 5.22172L6.6963 6.95061C7.1486 7.84261 7.77743 8.65409 8.55246 9.34587C9.32554 10.041 10.2324 10.6057 11.2295 11.0129L13.1617 9.28398C13.335 9.12831 13.5409 9.00479 13.7676 8.92052C13.9943 8.83626 14.2374 8.79291 14.483 8.79296C14.9833 8.79296 15.4537 8.96832 15.8065 9.28398L18.4512 11.6462C18.6254 11.8015 18.7636 11.9861 18.8578 12.1893C18.9519 12.3926 19.0003 12.6104 19 12.8305C19 13.2782 18.804 13.699 18.4512 14.0147L16.0002 16.2078C15.4376 16.7132 14.6605 17 13.8627 17C13.6944 17 13.533 16.9876 13.3739 16.9629C10.2657 16.5049 7.18282 15.0256 4.69487 12.8016C2.20923 10.5796 0.558285 7.8233 0.0394821 5.03398C-0.117311 4.18192 0.198584 3.3051 0.885708 2.68616Z" fill="#114635"/>
</svg>
