<svg width="26" height="26" viewBox="0 0 26 26" fill="none" xmlns="http://www.w3.org/2000/svg">
<path d="M16.7803 15.7197C16.4874 15.4268 16.0126 15.4268 15.7197 15.7197C15.4268 16.0126 15.4268 16.4874 15.7197 16.7803L16.7803 15.7197ZM22.2197 23.2803C22.5126 23.5732 22.9874 23.5732 23.2803 23.2803C23.5732 22.9874 23.5732 22.5126 23.2803 22.2197L22.2197 23.2803ZM10.8333 17.6667C7.05939 17.6667 4 14.6073 4 10.8333H2.5C2.5 15.4357 6.23096 19.1667 10.8333 19.1667V17.6667ZM17.6667 10.8333C17.6667 14.6073 14.6073 17.6667 10.8333 17.6667V19.1667C15.4357 19.1667 19.1667 15.4357 19.1667 10.8333H17.6667ZM10.8333 4C14.6073 4 17.6667 7.05939 17.6667 10.8333H19.1667C19.1667 6.23096 15.4357 2.5 10.8333 2.5V4ZM10.8333 2.5C6.23096 2.5 2.5 6.23096 2.5 10.8333H4C4 7.05939 7.05939 4 10.8333 4V2.5ZM15.7197 16.7803L22.2197 23.2803L23.2803 22.2197L16.7803 15.7197L15.7197 16.7803Z" fill="#114635"/>
</svg>
