<svg width="35" height="35" viewBox="0 0 35 35" fill="none" xmlns="http://www.w3.org/2000/svg">
<path fill-rule="evenodd" clip-rule="evenodd" d="M12.416 10.2083C12.416 7.40089 14.6919 5.125 17.4993 5.125C20.3068 5.125 22.5827 7.40089 22.5827 10.2083C22.5827 13.0158 20.3068 15.2917 17.4993 15.2917C14.6919 15.2917 12.416 13.0158 12.416 10.2083ZM17.4993 3.625C13.8635 3.625 10.916 6.57246 10.916 10.2083C10.916 13.8442 13.8635 16.7917 17.4993 16.7917C21.1352 16.7917 24.0827 13.8442 24.0827 10.2083C24.0827 6.57246 21.1352 3.625 17.4993 3.625ZM8.04102 26.7361C8.04102 24.4476 9.845 22.625 12.0306 22.625H22.9681C25.1537 22.625 26.9577 24.4476 26.9577 26.7361V28.4167H8.04102V26.7361ZM12.0306 21.125C8.981 21.125 6.54102 23.6552 6.54102 26.7361V29.1667C6.54102 29.5809 6.8768 29.9167 7.29102 29.9167H27.7077C28.1219 29.9167 28.4577 29.5809 28.4577 29.1667V26.7361C28.4577 23.6552 26.0177 21.125 22.9681 21.125H12.0306Z" fill="#124635"/>
</svg>
